<svg width="900" height="1038" xmlns="http://www.w3.org/2000/svg" data-name="Capa 1">

 <g>
  <title>Layer 1</title>
  <g stroke="null" id="svg_27">
   <path stroke="null" id="svg_1" fill="#fff" d="m47.09115,456.47669c3.35575,26.43181 6.52762,51.37933 9.89486,77.86823l8.72265,76.32685l-0.2988,-0.17126l10.34306,88.2107a281.56112,233.10992 0 0 0 174.17716,193.53833l183.11816,61.64568c8.60773,2.6546 20.46777,2.79732 29.01803,0.15224l188.17477,-65.88923a281.27381,232.87206 0 0 0 170.55708,-192.00646c0,-0.46622 0.10343,-0.95147 0.16089,-1.38914c3.16038,-27.2025 5.74615,-54.45258 8.91802,-84.11938l-0.73551,0.41865l9.44666,-77.70648l0.10343,0c3.21784,-26.59356 6.25181,-51.55059 9.30876,-76.82161l-800.90922,-0.05709zm350.06666,119.07636a8.3549,6.91718 0 0 1 8.14803,-5.3758l95.19064,0a8.37788,6.93621 0 0 1 8.0446,4.89055l2.73517,7.47855l-116.07214,0l1.95369,-6.9933zm-18.1923,68.30597a13.66433,11.31297 0 0 1 13.31956,-8.77254l121.54247,0a13.65284,11.30345 0 0 1 13.05524,7.99234l1.63191,4.37676l-150.54901,0l0.99983,-3.59655zm-18.69796,61.90258a8.98697,7.44049 0 0 1 8.76862,-5.7659l167.78744,0a8.98697,7.44049 0 0 1 8.59623,5.25211l2.63173,7.17408l-189.62279,0l1.83877,-6.66028zm-69.81567,97.04985a67.44825,55.84172 0 0 1 -66.4829,-45.73712l-13.54941,-61.0082l1.73534,-1.13225l-2.29846,-1.31303l-30.7074,-138.55293a21.18029,17.53558 0 0 1 20.82403,-20.70397l154.06565,0l0.80446,0.78972l-58.32337,267.65777l-6.06793,0zm47.29078,-20.45659l1.62041,-5.80396a10.22814,8.46807 0 0 1 9.96382,-6.56514l207.25197,0a10.22814,8.46807 0 0 1 9.77994,5.98474l2.3789,6.38436l-230.99504,0zm378.36068,-228.25743l-32.06349,140.44635l-0.67805,0.3901l0.50566,0.33301l-14.16999,62.07384a67.43676,55.83221 0 0 1 -66.65529,45.47071l0,0l-63.03521,-269.19915l0.2988,-0.29496l154.98503,0a21.18029,17.53558 0 0 1 20.81254,20.78008z" class="cls-1"/>
   <path stroke="null" id="svg_2" fill="#fff" d="m833.11786,412.70912l-12.99778,0a421.91646,349.31284 0 0 0 -311.14228,-180.95039l-3.36724,-9.99043a430.77702,356.64867 0 0 1 180.62433,55.83221q5.99898,3.28257 11.84855,6.66028l78.29698,-52.96828l-48.16419,72.31165a433.36279,358.78948 0 0 1 104.90163,109.10496z" class="cls-1"/>
   <path stroke="null" id="svg_3" fill="#fff" d="m390.4693,221.78733l-3.30978,9.99043a421.64065,349.08449 0 0 0 -311.13078,180.93136l-12.95181,0a434.59246,359.80755 0 0 1 105.26938,-109.30477l-48.02628,-72.04524l78.03265,52.79702c6.53911,-3.80588 13.20464,-7.50709 19.99659,-11.02753a431.22522,357.01974 0 0 1 172.12004,-51.34127z" class="cls-1"/>
   <path stroke="null" id="svg_4" fill="#fff" d="m333.0768,454.05045c-20.96194,3.09227 -39.71736,6.20358 -58.61068,8.36341c-4.05678,0.46622 -10.15918,-1.60798 -12.64152,-4.23404c-2.29846,-2.38819 -2.62024,-8.097 -0.63208,-10.58034c2.29846,-2.79732 8.0446,-3.7583 12.3772,-5.22357c1.14923,-0.3901 2.86158,0.38059 4.3211,0.50428c15.83638,1.33206 31.67275,2.67363 47.52062,3.92957a28.94908,23.96751 0 0 0 4.94168,-0.17126c3.44769,-11.61744 5.38988,-23.09215 10.34306,-33.62492s12.80241,-20.11406 20.31837,-31.52217c-14.39984,-8.40147 -29.73056,-17.39285 -45.13023,-26.29861c-7.66536,-4.43385 -9.75695,-10.15218 -5.37839,-15.44234c5.57376,-6.7364 15.26176,-6.09892 21.97326,1.13225c11.29692,12.1788 22.85817,24.18634 34.00569,35.9465c12.91733,-6.70786 23.93844,-13.78679 36.29265,-18.4585s26.17944,-7.01233 41.10792,-10.8182c-0.94237,-7.1265 -1.71235,-15.547 -3.2753,-23.85333c-1.41355,-7.47855 -4.59692,-14.77631 -5.25198,-22.26438c-0.33328,-3.6917 1.98817,-8.75352 5.28645,-11.10364c2.59726,-1.85536 9.95232,-1.96003 12.64152,-0.19029a17.95096,14.86195 0 0 1 5.84958,10.94189c-0.97684,14.35767 -3.26381,28.65825 -4.98765,42.97786a18.50259,15.31865 0 0 0 0.26432,3.35869c14.02059,2.85441 27.83433,4.50996 40.56779,8.56322c12.50361,3.93908 23.91546,10.25684 37.64874,16.34624c7.33208,-8.06846 15.83638,-17.25013 24.13381,-26.59356c3.29829,-3.73927 5.32093,-8.43002 9.19383,-11.55083c3.21784,-2.55945 8.75713,-5.13793 12.64152,-4.57657s8.86056,4.67171 9.65352,7.84962s-1.87324,8.26827 -5.0681,10.52325c-14.56073,10.24732 -29.87996,19.79056 -45.73932,30.15206c20.49075,18.33481 32.02901,39.01023 34.74119,64.27174c19.21511,-2.85441 37.46487,-5.34726 55.62269,-8.24924c6.82642,-1.09419 13.07823,-0.52331 15.87085,4.87152c1.57444,3.0447 1.55146,8.56322 -0.76998,10.62791c-2.99949,2.70217 -9.12488,4.50045 -13.72179,4.26258c-17.34187,-0.87535 -34.59179,-2.74023 -51.88769,-4.19598a31.31649,25.92753 0 0 0 -4.68885,0.19029c-0.68954,4.42433 -1.3446,8.64885 -2.11458,13.55843l-21.63998,-2.2645c0,-3.37772 0,-6.03231 0,-10.05703c-7.19417,2.23595 -14.02059,4.05326 -20.51374,6.46048c-6.30927,2.3311 -11.02111,2.21692 -14.93998,-3.22548c-3.34426,-4.60511 -19.04273,-4.4053 -22.98458,-0.26641c-1.21818,1.294 -3.82693,3.03519 -4.99915,2.69266c-1.78131,-0.52331 -2.85009,-2.68314 -5.07959,-5.07133c-2.81561,0.08563 -9.43517,-1.2274 -11.12454,0.59943c-7.58491,8.18263 -17.23844,2.7878 -25.76572,3.65364c-4.44752,0.44719 -9.19383,-2.2645 -13.99761,-2.74023c-2.29846,-0.22835 -4.7693,1.53187 -7.22865,2.17886c-1.86175,0.49476 -4.50498,1.49381 -5.67719,0.85632c-9.11339,-4.96667 -17.56022,-4.20549 -26.09899,0.95147c-1.43654,0.86584 -3.99932,0.51379 -6.05644,0.63748c-14.0091,0.82778 -28.25954,-0.74215 -41.96985,3.32063c-5.55078,1.57944 -10.60738,1.23691 -9.34323,-7.14553zm87.41036,-24.938c-3.2753,-2.56897 -5.74615,-5.09987 -8.90653,-6.81252c-2.76964,-1.52235 -6.61956,-3.40626 -9.40069,-2.85441c-7.58491,1.38914 -11.56124,-0.65651 -14.37686,-6.40339c-2.58577,-5.26162 -6.25181,-10.16169 -9.64203,-15.547c-14.0091,12.3691 -23.06503,32.46413 -21.50208,47.76375c7.10224,-2.27401 13.96313,-4.21501 20.54822,-6.66028c5.74615,-2.15032 9.80292,-1.26545 13.79075,2.85441c1.91921,1.98857 5.6657,3.32063 8.84906,3.80588c9.36622,1.49381 15.67548,-1.2274 17.23844,-9.7145c0.4482,-2.04566 2.0801,-3.9486 3.40172,-6.43193zm93.83455,-42.3594c-17.67514,-11.81725 -36.18922,-17.69732 -59.0244,-18.61074c3.30978,6.88864 6.53911,12.3691 8.46982,18.17306c0.95386,2.85441 0.747,8.31584 -1.0458,9.03896c-9.3892,3.80588 -6.89537,10.39956 -6.49314,16.29867c0.13791,1.90294 2.91904,4.0152 5.09108,5.36629a17.2959,14.31961 0 0 0 7.36656,2.28353c3.05695,0.42816 8.0446,1.28448 9.03294,0.12369c3.44769,-4.16743 12.90584,-5.58512 9.64203,-13.13979c-2.51681,-5.80396 0.48268,-9.08653 7.09074,-11.32248s12.5266,-5.09036 19.88166,-8.21118l-0.01149,0zm-70.96489,-18.40141c-22.52489,2.14081 -40.5448,8.80109 -57.32355,21.37951c8.14803,2.93052 14.49178,5.46143 21.05388,7.49758c6.20584,1.90294 8.63071,5.09036 7.80327,10.66597a13.33106,11.03704 0 0 0 2.65472,7.32631c2.79263,2.99713 6.67702,5.29017 9.8374,7.68787l18.54856,-7.07893c0,-2.01711 0,-4.17695 0,-6.32727c0,-5.24259 0.60909,-10.33295 -7.3091,-13.15882c-2.03414,-0.72312 -2.76964,-6.38436 -2.06861,-9.4576c1.32161,-5.88959 4.12573,-11.55083 6.80344,-18.53462zm39.47602,59.16235c2.01115,3.56801 3.63156,6.97427 5.74615,10.1046c1.42504,2.03614 3.89589,5.34726 5.49331,5.19502c6.20584,-0.58991 14.13552,3.01616 18.3302,-3.3016s9.26279,-6.3463 16.26159,-3.9486c6.06793,2.0742 12.5151,3.40626 19.90465,5.35677c-2.29846,-18.782 -10.51545,-33.66298 -25.67378,-47.4117c-3.29829,6.22261 -6.43568,11.41763 -8.80309,16.841s-6.33225,7.74496 -13.49195,6.66028a10.34306,8.56322 0 0 0 -7.49297,1.57944c-3.73499,2.57848 -6.83791,5.88008 -10.27411,8.92478zm-25.90362,10.59937l12.72197,-11.13219l-13.07823,-4.53851c0.12642,5.40434 0.21835,9.62887 0.35626,15.6707zm25.89213,5.14745l-5.59675,-10.78966l-12.84838,11.332l18.44513,-0.54234zm-49.55476,-15.65167l13.49195,10.58034c-0.25283,-6.10843 -0.41372,-10.26635 -0.63208,-15.29011l-12.85987,4.70977zm-7.03328,6.03231l-4.49349,11.03704l17.82454,-0.45671l-13.33106,-10.58034z" class="cls-1"/>
   <path stroke="null" id="svg_26" fill="#fff" d="m513.57472,245.39328q-7.42402,-1.01807 -14.93998,-1.78876l-4.51647,-13.4062l-3.32127,-9.83819l-42.72834,-127.03064l-42.79729,127.03064l-3.32127,9.8477l-4.49349,13.32057q-7.49297,0.77069 -14.93998,1.76022c-121.41605,16.23206 -227.59332,77.03094 -288.80126,167.4205l52.41634,0c66.4829,-83.8054 178.83153,-134.63288 301.93695,-134.63288a362.36341,300.00772 0 0 1 301.89098,134.63288l52.46231,0a407.50513,337.38142 0 0 0 -288.84723,-167.31584zm-65.50606,-3.9486l-35.6261,0l35.6261,-123.69098l0,123.69098z" class="cls-1"/>
  </g>
 </g>
</svg>