<svg id="Capa_1" data-name="Capa 1" xmlns="http://www.w3.org/2000/svg" viewBox="0 0 200 200"><defs><style>.cls-1{fill:#fff;}</style></defs><path class="cls-1" d="M102.76,126.76v22a1,1,0,0,1-1,1H98.33a1,1,0,0,1-1-1v-22a1,1,0,0,0-1.21-1L37.66,138a1,1,0,0,0-.77,1.2c1.16,5,2.27,9.77,3.4,14.66a1,1,0,0,1-.72,1.19l-3.4.89a1,1,0,0,1-1.23-.74c-1-4-1.9-7.84-2.82-11.7-.52-2.16-1-4.32-1.5-6.49A2.81,2.81,0,0,1,33,133.27c2.32-.54,4.65-1,7.2-1.56a1,1,0,0,0,.78-1.17c-.61-3.2-1.21-6.3-1.8-9.4-.63-3.29-.13-4.08,3.23-4.76,5-1,10-1.94,15.05-2.92a1,1,0,0,0,.81-1v-5.83a1,1,0,0,1,1-1h3.52a1,1,0,0,1,1,1V111a1,1,0,0,0,1.17,1l3.6-.63a1,1,0,0,0,.83-1v-3.81a1,1,0,0,1,1-1h3.53a1,1,0,0,1,1,.91l.22,2.5a1,1,0,0,0,1.17.89c5.3-1,10.55-1.66,15.62-3,6.34-1.72,12.39-.83,18.59.48,8,1.7,16.11,3.11,24.43,4.68a1,1,0,0,0,1.18-1V106.6a1,1,0,0,1,1-1h3.61a1,1,0,0,1,1,1v5.85a1,1,0,0,0,.81,1c4.62.9,9.06,1.8,13.53,2.58,5.08.88,5.52,1.4,4.59,6.53-.46,2.6-1,5.17-1.59,7.94a1,1,0,0,0,.77,1.18l7,1.54c1.93.41,3.05,1.57,2.61,3.55-1.35,6.08-2.82,12.12-4.31,18.42a1,1,0,0,1-1.22.74l-3.45-.87a1,1,0,0,1-.72-1.2c1.13-4.86,2.22-9.58,3.4-14.65a1,1,0,0,0-.76-1.21L104,125.79A1,1,0,0,0,102.76,126.76Zm52.15-4.12a1,1,0,0,0-.65-1.15,8.74,8.74,0,0,0-1.26-.38q-25.33-4.81-50.68-9.57a10.62,10.62,0,0,0-3.81-.11c-13.63,2.52-27.24,5.12-40.86,7.71-3.9.74-7.8,1.52-11.78,2.3a1,1,0,0,0-.79,1.2l1.43,6.67a1,1,0,0,0,1.11.78c.93-.12,1.76-.22,2.57-.39q24.15-5,48.31-10.08a7,7,0,0,1,2.73-.07c10,2,20.08,4.16,30.12,6.24l20.93,4.35a1,1,0,0,0,1.19-.77C154,127.1,154.42,124.94,154.91,122.64Z"/><path class="cls-1" d="M52.11,108.38,48.89,108a1.12,1.12,0,0,1-1-1.23c.76-6.85,1.48-13.48,2.23-20.1.56-5,1.05-10,1.76-15A12.47,12.47,0,0,1,64.13,60.92c1.31,0,2.65,0,4.05,0a1.13,1.13,0,0,0,1.13-1.12v-5.9a1.11,1.11,0,0,1,1.11-1.11h3.39a1.12,1.12,0,0,1,1.12,1.11v5.76A1.11,1.11,0,0,0,76,60.78h3.37a1.1,1.1,0,0,0,1.11-1.11c0-2.83.06-5.66,0-8.5-.16-5.61,2.18-9.57,7.35-11.92a3.34,3.34,0,0,0,1.51-2.18c.66-3.45,1-6.95,1.69-10.41a9.09,9.09,0,0,1,17.87-.05c.64,3.46,1,7,1.7,10.41a3.7,3.7,0,0,0,1.72,2.32c4.76,2.28,7.16,5.95,7.12,11.23,0,3,0,5.94,0,9a1.11,1.11,0,0,0,1.11,1.11h3.24a1.11,1.11,0,0,0,1.11-1.11V56.69a1.12,1.12,0,0,1,1.12-1.12h3.39a1.11,1.11,0,0,1,1.11,1.12v3.13a1.11,1.11,0,0,0,1.13,1.11c1.95,0,3.73,0,5.5,0,5.59.17,10,3.8,10.7,9.38,1.41,11,2.55,22.06,3.8,33.1,0,.22,0,.44,0,.7a1.11,1.11,0,0,1-1,1.09l-3.26.33a1.12,1.12,0,0,1-1.22-1c-.78-7-1.53-13.68-2.27-20.4-.42-3.86-.74-7.74-1.25-11.59-.61-4.54-2.42-6.06-7-6.06q-35.09,0-70.16,0A8.43,8.43,0,0,0,57.12,74C56,84,55,94.1,53.85,104.15c-.11,1.06-.3,2.11-.5,3.3A1.12,1.12,0,0,1,52.11,108.38ZM87.23,60.72h25.54a1.11,1.11,0,0,0,1.11-1.11c0-3.4.08-6.64,0-9.89a5.39,5.39,0,0,0-5.53-5.43q-8.32-.15-16.65,0a5.39,5.39,0,0,0-5.53,5.43c-.11,3.25,0,6.5,0,9.89A1.12,1.12,0,0,0,87.23,60.72Zm16.62-22.19a1.11,1.11,0,0,0,1.1-1.28,87.3,87.3,0,0,0-1.69-9.73A4.47,4.47,0,0,0,99.94,25a4,4,0,0,0-3.17,2.32,99.54,99.54,0,0,0-1.72,9.92,1.11,1.11,0,0,0,1.1,1.28Z"/><path class="cls-1" d="M19.45,160.29v-4.63c4.2-.39,7.85,1,11.32,3a16.19,16.19,0,0,0,12.82,1.89,29.13,29.13,0,0,0,5.58-2.39c6.93-3.55,14-3.82,20.74,0s13.16,3.74,20-.06a19.86,19.86,0,0,1,20.21,0c6.91,3.88,13.31,3.85,20.2,0a19.7,19.7,0,0,1,20-.06c7,3.92,13.5,4,20.46,0,2.78-1.59,6.22-2,9.75-3.11v5.35c-3.64,1.5-7.13,2.83-10.54,4.34-6.69,3-13.33,3-19.76-.52-4.4-2.4-8.88-3.8-13.82-2.44a30.84,30.84,0,0,0-5.59,2.39c-7.12,3.61-14.27,3.79-21.25-.13-6.4-3.58-12.52-3.61-18.94,0a20.89,20.89,0,0,1-21.47,0c-6.3-3.52-12.36-3.6-18.69-.05-7.27,4.07-14.62,3.81-22,0C25.72,162.33,22.76,161.54,19.45,160.29Z"/><path class="cls-1" d="M180.55,168.76v5.33c-3.67,1.49-7.09,2.76-10.4,4.26-6.57,3-13.23,3.29-19.51-.21-7-3.9-13.43-4-20.46-.09A19.84,19.84,0,0,1,110,178c-6.8-3.82-13.14-3.82-20,0a20.08,20.08,0,0,1-20.46,0c-6.7-3.75-13-3.79-19.71,0s-14,3.48-21,0c-2.85-1.42-5.95-2.35-9.32-3.66v-4.65c4.45-.44,8.29,1.26,12,3.35a15.87,15.87,0,0,0,12.35,1.47,31.19,31.19,0,0,0,5.55-2.48c6.76-3.38,13.68-3.68,20.24,0,6.91,3.85,13.31,3.93,20.21,0a19.61,19.61,0,0,1,20-.12c7.1,4,13.64,3.93,20.72,0a19.21,19.21,0,0,1,19.44,0c7.18,4,13.85,4.13,21,0C173.66,170.19,177,169.81,180.55,168.76Z"/><path class="cls-1" d="M138.8,83.37v5.25H61.28V83.37Z"/><rect class="cls-1" x="77.89" y="72.27" width="10.8" height="5.24" rx="2.32"/><rect class="cls-1" x="94.61" y="72.21" width="10.83" height="5.32" rx="2.32"/><rect class="cls-1" x="111.25" y="72.26" width="10.89" height="5.2" rx="2.32"/><rect class="cls-1" x="77.92" y="94.46" width="10.83" height="5.23" rx="2.32"/><rect class="cls-1" x="94.56" y="94.44" width="10.79" height="5.26" rx="2.32"/><rect class="cls-1" x="111.21" y="94.47" width="10.89" height="5.19" rx="2.32"/><rect class="cls-1" x="63.98" y="72.27" width="8.02" height="5.23" rx="2.32"/><rect class="cls-1" x="127.99" y="72.22" width="8.03" height="5.2" rx="2.32"/><rect class="cls-1" x="64" y="94.54" width="8.09" height="5.16" rx="2.32"/><rect class="cls-1" x="127.97" y="94.45" width="8.07" height="5.24" rx="2.32"/><path class="cls-1" d="M91.6,133.41v5.19H86.27v-5.19Z"/><path class="cls-1" d="M113.8,133.46v5.19h-5.33v-5.19Z"/></svg>