<svg id="Capa_1" data-name="Capa 1" xmlns="http://www.w3.org/2000/svg" viewBox="0 0 200 200"><defs><style>.cls-1{fill:#fff;}</style></defs><path class="cls-1" d="M35.47,95.4c-4.85-10.8-5.33-21.79-.6-32.79A38.24,38.24,0,0,1,50.59,44.73c13.92-8.42,34.6-8.18,49.3,7.41,15.93-14.66,33.27-17.77,52-5.69,8,5.18,13,12.95,15.34,22.28s1.16,18.1-2.87,27.05c2.12,0,3.87,0,5.62,0,2.69.08,4.52,1.83,4.53,4.28a4.27,4.27,0,0,1-4.49,4.31c-3.25.06-6.52-.09-9.77.08a5.3,5.3,0,0,0-3.18,1.34Q130.74,132,104.54,158.23c-3.69,3.69-5.38,3.69-9.06,0Q69.24,132,43,105.81a5.38,5.38,0,0,0-3.18-1.35c-3.17-.17-6.36,0-9.54-.07-2.88,0-4.74-1.76-4.74-4.3s1.85-4.24,4.73-4.31c1.56,0,3.11,0,4.66,0C35,95.73,35.15,95.59,35.47,95.4Zm64.17,9.91c.6-1,1-1.69,1.45-2.41q6.19-10.79,12.38-21.57c2.34-4.06,6-4.17,8.48-.23,2.81,4.36,5.5,8.81,8.4,13.11a3.87,3.87,0,0,0,2.72,1.5c6.2.13,12.41,0,18.61.12a3.8,3.8,0,0,0,3.82-2.26A30.26,30.26,0,0,0,108.68,56.2c-1.86,1.76-3.6,3.64-5.47,5.39a4.37,4.37,0,0,1-6.44,0c-1.42-1.32-2.76-2.72-4.13-4.1C85.21,50,76.33,47,65.8,48.36c-20.93,2.79-32.56,28.4-20.72,46a3.67,3.67,0,0,0,2.57,1.38c4.1.15,8.22,0,12.32.11A2.76,2.76,0,0,0,63,93.76C66.24,86,69.57,78.2,72.78,70.4c.87-2.09,2.06-3.74,4.47-3.78s3.55,1.52,4.52,3.45Q89.85,86.15,98,102.2ZM55,104.4l44.9,44.89,44.93-44.89c-4.51,0-9.38-.16-14.23.06a6.44,6.44,0,0,1-6.59-3.65c-1.81-3.25-4-6.31-6.11-9.66-4.83,8.4-9.48,16.45-14.06,24.53-1.06,1.87-2.3,3.41-4.61,3.33s-3.43-1.72-4.39-3.63C89.63,104.92,84.32,94.5,79,84.08c-.37-.72-.79-1.42-1.37-2.45-.54,1.2-.93,2-1.28,2.84-2.35,5.57-4.71,11.12-7,16.71a4.65,4.65,0,0,1-4.8,3.24C61.32,104.34,58.08,104.4,55,104.4Z"/></svg>