<svg id="Capa_1" data-name="Capa 1" xmlns="http://www.w3.org/2000/svg" viewBox="0 0 200 200"><defs><style>.cls-1{fill:#fff;}</style></defs><path class="cls-1" d="M157.07,100.05a57.07,57.07,0,1,1-56.78-57.2A57.19,57.19,0,0,1,157.07,100.05Zm-57,50.67A50.82,50.82,0,1,0,49.13,100.1,50.7,50.7,0,0,0,100,150.72Z"/><path class="cls-1" d="M100.28,58.79a41.12,41.12,0,0,1,40.77,36.69c2.38,20.46-11.29,40.17-31.5,44.66C93,143.82,78.7,139.11,68,126S55.84,98.19,62.46,82.69c.43-1,.84-2.35,1.66-2.81A5,5,0,0,1,68,79.34c.8.34,1.27,2.15,1.29,3.31,0,1-.82,2-1.28,3a35.11,35.11,0,0,0,19.93,47.18c19,7,39.65-3.46,45.63-23.14,5.75-18.89-6.1-39.33-25.53-43.82-11-2.54-20.94-.12-29.88,6.69-.79.61-1.54,1.66-2.38,1.73-1.26.11-3-.09-3.75-.88-.62-.62-.46-2.45-.07-3.52s1.47-1.62,2.35-2.3A39.8,39.8,0,0,1,100.28,58.79Z"/><path class="cls-1" d="M95.85,120.78A13.08,13.08,0,0,1,87,114.31c-1-1.88-1.61-3.87.64-5.27s3.61,0,4.76,1.94a8.41,8.41,0,0,0,10.2,3.31A5.5,5.5,0,0,0,106,109a4.42,4.42,0,0,0-3-4.71A35.83,35.83,0,0,0,97.56,103c-5.46-1.1-9.11-4.44-9.86-9.1-.84-5.28,1.65-9.84,6.68-12.62A4.67,4.67,0,0,0,96,78.83c.26-.69-.21-1.75.16-2.27.81-1.14,1.8-2.6,3-2.91a2.54,2.54,0,0,1,3.15,2.93c-.32,3.21,1.17,4.68,3.84,5.93a10.09,10.09,0,0,1,3.46,3.5c1.14,1.62,1.19,3.51-.63,4.7s-3.43.64-4.55-1.2c-1.33-2.15-3.3-2.8-5.7-2.68A4.57,4.57,0,0,0,94,91.13a4.22,4.22,0,0,0,3.19,5.14c2.22.67,4.58.9,6.8,1.58,5.25,1.61,8.26,5.55,8.41,10.77a11.62,11.62,0,0,1-7.86,11.6c-1.79.61-2.24,1.44-2.15,3.08a3.73,3.73,0,0,1-.24,2.27c-.74,1-1.89,2.32-2.78,2.25a4.42,4.42,0,0,1-3.06-2.3C95.71,124.2,96,122.49,95.85,120.78Z"/></svg>