<svg id="Capa_1" data-name="Capa 1" xmlns="http://www.w3.org/2000/svg" viewBox="0 0 200 200"><defs><style>.cls-1{fill:#fff;}</style></defs><path class="cls-1" d="M173.33,64Q161.17,64,149,64q-36.75,0-73.5,0c-2,0-2.76-.48-3.19-2.47-1.21-5.68-2.66-11.32-4-17C67,39.7,63.69,37.07,58.61,37c-3.13,0-6.26-.05-9.38,0-2.87,0-4.6,1.67-4.66,4.24s1.73,4.4,4.7,4.46c2.71.05,5.41.08,8.11,0a2.14,2.14,0,0,1,2.6,2q7.82,32.72,15.8,65.38c.47,1.91.28,2.87-1.69,3.88a16.18,16.18,0,0,0-7.27,21.25c2.71,5.84,7.5,8.92,13.78,9.71,3,11.31,7.23,15.32,15.8,15,7.31-.29,12-5.37,13.62-14.85H134.2c.09.85.15,1.52.23,2.18,1,8.59,9.71,14.6,17.87,12.29,6-1.69,10.06-6.31,10.7-12.13a14.19,14.19,0,0,0-7.5-14.56c-5.29-2.82-11.46-2-16.34,1.89A6.16,6.16,0,0,1,135.6,139q-13.56.17-27.12,0a6.13,6.13,0,0,1-3.55-1.34,14.58,14.58,0,0,0-18.66-.25,7.37,7.37,0,0,1-11-2.07,7.21,7.21,0,0,1-.07-7.7c1.59-2.74,4.06-3.84,7.2-3.84q33.33,0,66.66,0c8.21,0,14.25-4.38,16.69-12.19C170,98,174.16,84.38,178.33,70.76,179.65,66.47,177.82,64,173.33,64Zm-24.67,78.62a6,6,0,0,1,5.94,6,5.83,5.83,0,0,1-11.66-.05A5.9,5.9,0,0,1,148.66,142.65Zm-53.26,0a5.9,5.9,0,0,1,5.82,5.82,5.79,5.79,0,0,1-5.7,5.88,5.9,5.9,0,0,1-6-5.89A6.08,6.08,0,0,1,95.4,142.65ZM157.84,111a7.14,7.14,0,0,1-6.79,5.13H84.29L73.81,71.89l95.92,0Z"/><path class="cls-1" d="M59.85,88.52H35.3c-1.79,0-3.3.45-3.26,2.61s1.62,2.48,3.37,2.48h11.9c4.13,0,8.26,0,12.4,0,1.76,0,3.35-.36,3.4-2.47S61.65,88.52,59.85,88.52Z"/><path class="cls-1" d="M43.63,80.28c1.72,0,3.13-.43,3.17-2.41s-1.28-2.66-3-2.67c-6.5,0-13,0-19.5,0-1.73,0-3.07.78-3.05,2.64s1.38,2.48,3.14,2.45c3.21,0,6.41,0,9.62,0S40.42,80.24,43.63,80.28Z"/><path class="cls-1" d="M37.27,67.06c3,0,5.91,0,8.87,0s5.91,0,8.87,0c1.74,0,3.08-.57,3.1-2.5S56.77,62,55.05,62H37.31c-1.73,0-3.09.64-3.11,2.54S35.51,67.07,37.27,67.06Z"/></svg>