<svg id="Capa_1" data-name="Capa 1" xmlns="http://www.w3.org/2000/svg" viewBox="0 0 200 200"><defs><style>.cls-1{fill:#fff;}</style></defs><path class="cls-1" d="M43.08,102.43a18.69,18.69,0,0,1-7.63-10.85C32.54,79.74,43,68.16,55.05,70.07a3.06,3.06,0,0,0,3.62-1.55c19.44-29.68,63.21-29.67,82.69,0a2.9,2.9,0,0,0,3.38,1.6,17,17,0,0,1,18.51,10,17.34,17.34,0,0,1-4.38,20.82c-.58.51-1.19,1-1.81,1.51,1.78,1.2,3.56,2.21,5.12,3.49a23.54,23.54,0,0,1,8.72,16.92,3.5,3.5,0,0,1-2.43,4,57,57,0,0,1-18.64,4.38c.51.71.86,1.25,1.27,1.73,3.19,3.7,6.54,7.27,9.54,11.1a13.42,13.42,0,0,1,1.45,15.29c-2.7,5.24-7.23,7.79-13.08,7.7-4.33-.07-7.79-2.13-10.6-5.39-5.4-6.27-10.88-12.46-16.23-18.76-1.18-1.39-2-1.76-3.88-1-17.44,7.29-39.29,2.93-52.73-10.46A3.53,3.53,0,0,0,62,130.35a52,52,0,0,1-29.83-3.29c-3.05-1.28-3.4-1.87-3-5.21a23.55,23.55,0,0,1,12.33-18.49C42,103.1,42.46,102.81,43.08,102.43Zm57,38.17c24.66,0,45.22-20.07,44.78-44.42-.51-28.87-21.73-45-44.71-45S55.68,67.26,55.21,96.23C54.81,120.58,75.37,140.61,100,140.6Zm25-1.69c6,7,12,13.89,18.06,20.66a8.29,8.29,0,0,0,8.41,2.51c7.33-1.75,9.93-9.89,5-15.72-4.11-4.87-8.34-9.63-12.52-14.43l-4.35-5c-2.44,2.16-4.67,4.27-7,6.21S127.68,136.87,125,138.91ZM51,105.53a18.73,18.73,0,0,0-16.78,14.58c-.43,2.1.12,3,2.1,3.5,1.76.41,3.45,1.09,5.19,1.52a48.32,48.32,0,0,0,18.68.76c-1.9-3.4-3.91-6.5-5.41-9.83S52.31,109.16,51,105.53Zm98.3.07c-2.15,5.08-4.06,9.86-6.2,14.55-1.13,2.47.64,6.13,3.38,6.24a43.57,43.57,0,0,0,18.39-3.32,1.94,1.94,0,0,0,1-1.47C165.71,113.65,157.13,105.6,149.33,105.6Zm-98.82-5.43a51.23,51.23,0,0,1,4.43-25.11c-5.89-2-13,2.69-14.81,9.41C38.28,91.4,42.91,98.65,50.51,100.17Zm99,.09c5.17-1.22,8.49-4.05,10-8.75a12.95,12.95,0,0,0-14.54-16.75A51.36,51.36,0,0,1,149.49,100.26Z"/><path class="cls-1" d="M137.26,41.88a9.06,9.06,0,0,1-.54,1.67c-1.25,2-2.5,4-3.84,5.91-.81,1.17-2.18,1.74-3.19.64a3.61,3.61,0,0,1-.62-3.21A30.15,30.15,0,0,1,132.89,41a3.18,3.18,0,0,1,2.6-.83C136.2,40.3,136.74,41.33,137.26,41.88Z"/><path class="cls-1" d="M147.75,50.67c.45.35,1.41.73,1.64,1.37a3,3,0,0,1-.27,2.56,44.39,44.39,0,0,1-5.75,5.13,2.81,2.81,0,0,1-2.68-.26c-.55-.5-.89-2.2-.51-2.6,2-2.14,4.3-4,6.51-6C146.84,50.74,147.14,50.78,147.75,50.67Z"/><path class="cls-1" d="M114.92,42.09c1-3,1.78-5.65,2.91-8.12a2.9,2.9,0,0,1,2.69-.92,3,3,0,0,1,1.4,2.52,35.07,35.07,0,0,1-2.29,7.13A3.12,3.12,0,0,1,117,44C116.25,43.92,115.59,42.75,114.92,42.09Z"/><path class="cls-1" d="M99.81,133.47c-20.69,0-37.59-16.81-37.57-37.28A37.93,37.93,0,0,1,100,57.91c21,0,37.85,17.1,37.79,38.45C137.72,116.92,120.74,133.52,99.81,133.47Zm23.39-14.39c12.44-11.26,13.56-32.38.51-46.24a32.59,32.59,0,0,0-47.91.55c-12.77,14.19-11,35,.61,45.28,1.71-3.07,3.08-6.51,5.31-9.25s5.39-4.88,8.09-7.23c-10.89-8.54-8.41-21-2.5-27A17.87,17.87,0,0,1,112.56,75c5.88,5.8,8.78,18.39-2.81,27.58A24.56,24.56,0,0,1,123.2,119.08Zm-23.36,9.7A32.43,32.43,0,0,0,117.33,124a2.24,2.24,0,0,0,1.31-2.61,18.85,18.85,0,0,0-37.24-.1,2.23,2.23,0,0,0,1.21,2.66A31.92,31.92,0,0,0,99.84,128.78Zm0-28.36c7.54,0,13-5.36,13.08-12.8A12.76,12.76,0,0,0,100,74.49c-6.89-.12-12.89,5.87-12.94,12.93A12.82,12.82,0,0,0,99.79,100.42Z"/></svg>