<svg id="Capa_1" data-name="Capa 1" xmlns="http://www.w3.org/2000/svg" viewBox="0 0 200 200"><defs><style>.cls-1{fill:#fff;}</style></defs><path class="cls-1" d="M59.06,88.46v-2.1c0-9.69.07-19.39,0-29.07a9.3,9.3,0,0,1,4.58-8.61c7.43-5,14.68-10.19,22-15.38a9.31,9.31,0,0,1,5.63-1.87c14.72,0,29.45,0,44.17,0,4.93,0,7.9,2.94,7.91,7.81,0,14.8,0,29.6,0,44.39a30.09,30.09,0,0,1-1.08,5.51h2c6.76,0,13.52,0,20.28,0,4.59,0,7.64,3,7.65,7.62,0,14.95,0,29.9,0,44.85a7.62,7.62,0,0,1-2.29,5.67l-19,19a7.69,7.69,0,0,1-5.69,2.28c-16.52,0-33,0-49.57-.07-1.79,0-3.56-.85-5.7-1.4A9.71,9.71,0,0,1,84,168.57c-16.07,0-32.14,0-48.22,0-4.1,0-7-2.2-7.74-5.82a11.25,11.25,0,0,1-.15-2.25c0-15.47,0-30.94,0-46.42a8.14,8.14,0,0,1,4-7.3c7.39-5,14.64-10.24,22-15.33C55.32,90.38,57,89.61,59.06,88.46ZM91.58,53.11H67.93c-3.41,0-4,.55-4,3.86v45.27c0,3.12.57,3.7,3.66,3.7q24,0,48,0c3.1,0,3.65-.57,3.66-3.72V57c0-3.26-.58-3.83-3.79-3.83Zm29.17,57.72H96.43c-3,0-3.61.62-3.61,3.51q0,22.86,0,45.71c0,3,.53,3.55,3.54,3.55h48.19c2.88,0,3.57-.68,3.57-3.59q0-22.74,0-45.49c0-3-.71-3.69-3.71-3.69Zm-60.4,52.79H84.22c3.24,0,3.7-.45,3.7-3.6q0-22.74,0-45.48c0-3.16-.54-3.7-3.64-3.7q-24,0-48,0c-3,0-3.56.53-3.56,3.53q0,22.84,0,45.7c0,3.13.41,3.54,3.5,3.54ZM124,99.1l.48.13c4.09-4.08,8.13-8.19,12.28-12.2a5.25,5.25,0,0,0,1.68-4.17c0-13.67,0-27.33,0-41,0-.64-.08-1.27-.15-2.32L124,52.05C124,68.1,124,83.6,124,99.1Zm43.23-1.3-.44-.27L152.55,110c.13,1.82.32,3.31.33,4.79q0,19.83,0,39.66v2.78c.83-.74,1.28-1.1,1.69-1.51,3.67-3.66,7.29-7.37,11-11a5.24,5.24,0,0,0,1.68-4.18c-.05-13.59,0-27.19,0-40.79Zm-18,8.68,13.92-12.23a9.91,9.91,0,0,0-1.17-.2c-8,0-16.07,0-24.1,0a3.3,3.3,0,0,0-2.52,1.2c-2.74,2.78-5.51,5.53-8.27,8.29-.67.67-1.34,1.34-2,2l.19.42h2.16c5.48,0,11,0,16.45,0C145.54,106,147.17,106.27,149.25,106.48ZM120.33,48.84l13.8-12.1c-.37-.21-.48-.33-.6-.33-5.78,0-11.56-.06-17.33,0a4.05,4.05,0,0,0-2.2.9c-4.18,3.18-8.31,6.42-12.44,9.66a9.25,9.25,0,0,0-1.06,1.17C107.18,48.65,113.64,47.67,120.33,48.84ZM73.18,48a7.39,7.39,0,0,0,1.1.28c5.55,0,11.1.06,16.64,0a4.48,4.48,0,0,0,2.38-1c3-2.25,5.94-4.57,8.89-6.88,1.5-1.17,3-2.36,4.49-3.55-4-.42-7.77-.22-11.54-.47a13.35,13.35,0,0,0-9.9,3.08C81.53,42.4,77.47,45,73.18,48ZM59.05,105.83V93.64L42.2,105.48l.15.35Z"/><path class="cls-1" d="M78.44,86.83c1.58,0,3.16,0,4.73,0a4.54,4.54,0,0,1,4.74,4.64,44.59,44.59,0,0,1,0,5.17,4.44,4.44,0,0,1-4.21,4.48c-3.52.16-7.06.17-10.58,0a4.48,4.48,0,0,1-4.28-4.64c-.06-1.73-.07-3.46,0-5.18a4.49,4.49,0,0,1,4.44-4.46c1.72-.08,3.45,0,5.17,0ZM73.6,96.25H83V91.71H73.6Z"/><path class="cls-1" d="M108.46,96.42c1.19,0,2.39-.06,3.58,0a2.36,2.36,0,1,1,0,4.72c-2.47.11-4.94.1-7.4,0a2.26,2.26,0,0,1-2.26-2.33,2.39,2.39,0,0,1,2.44-2.4,3.38,3.38,0,0,1,.45,0h3.14Z"/><path class="cls-1" d="M108.56,86.84c1.19,0,2.39-.06,3.58,0a2.33,2.33,0,0,1,2.29,2.28,2.25,2.25,0,0,1-2.23,2.32c-2.53.08-5.07.08-7.6,0a2.18,2.18,0,0,1-2.16-2.36,2.29,2.29,0,0,1,2.32-2.24c1.26-.07,2.53,0,3.8,0Z"/><path class="cls-1" d="M107.19,144.56c1.72,0,3.45-.06,5.18,0a4.44,4.44,0,0,1,4.4,4.26,49.73,49.73,0,0,1,0,5.18,4.71,4.71,0,0,1-4.61,4.88c-3.29.16-6.61.15-9.9,0a4.72,4.72,0,0,1-4.66-4.83c-.08-1.57-.07-3.15,0-4.72.13-3,1.85-4.71,4.83-4.8,1.57-.05,3.15,0,4.73,0Zm-4.67,9.35h9.33v-4.48h-9.33Z"/><path class="cls-1" d="M137.28,154.08c1.13,0,2.25,0,3.37,0a2.44,2.44,0,0,1,2.6,2.25,2.35,2.35,0,0,1-2.3,2.55c-2.47.12-4.94.11-7.41,0a2.47,2.47,0,0,1-2.31-2.36,2.54,2.54,0,0,1,2.46-2.43,3.39,3.39,0,0,1,.45,0Z"/><path class="cls-1" d="M137.29,149.22c-1.19,0-2.39.05-3.58,0a2.41,2.41,0,0,1-2.47-2.36,2.35,2.35,0,0,1,2.53-2.28c2.39-.06,4.78-.07,7.16,0a2.21,2.21,0,0,1,2.32,2.22,2.29,2.29,0,0,1-2.38,2.4c-1.19.07-2.39,0-3.58,0Z"/><path class="cls-1" d="M47.16,144.54c1.5,0,3,0,4.49,0,3.18.07,5,1.87,5.09,5,0,1.42,0,2.84,0,4.27-.07,3-1.89,5-4.85,5.1-3.14.13-6.29.11-9.43,0a4.94,4.94,0,0,1-5-5c-.08-1.41,0-2.84,0-4.26,0-2.9,2-5.35,5.25-5.15C44.16,144.61,45.66,144.54,47.16,144.54Zm4.6,4.88H42.51v4.49h9.25Z"/><path class="cls-1" d="M77.14,154.1c1.2,0,2.4-.07,3.59,0a2.39,2.39,0,0,1,.14,4.78,70.25,70.25,0,0,1-7.4,0,2.37,2.37,0,0,1-2.31-2.54,2.48,2.48,0,0,1,2.39-2.25,3.39,3.39,0,0,1,.45,0h3.14Z"/><path class="cls-1" d="M77,149.22c-1.12,0-2.24.05-3.36,0a2.36,2.36,0,0,1-2.52-2.28,2.27,2.27,0,0,1,2.42-2.36q3.58-.1,7.17,0a2.25,2.25,0,0,1,2.4,2.36c0,1.32-1,2.16-2.53,2.28H77Z"/></svg>