<svg id="Capa_1" data-name="Capa 1" xmlns="http://www.w3.org/2000/svg" viewBox="0 0 200 200"><defs><style>.cls-1{fill:#fff;}</style></defs><path class="cls-1" d="M81.12,73c1.69-5.7-.66-10.43-4.72-14.68a50,50,0,0,1-4.21-5.47c-1.64-2.28-1-4.33,1.64-5.16,4.24-1.33,8.54-2.44,12.74-3.84a6.65,6.65,0,0,0,3.11-2.24c2.5-3.37,4.79-6.91,7.18-10.37,2.15-3.11,4.1-3.14,6.23-.08,2.45,3.52,4.79,7.11,7.33,10.56a6.3,6.3,0,0,0,2.94,2.1c4,1.32,8,2.41,12,3.63,3.71,1.13,4.29,3,1.92,6.1s-4.77,6.35-7.28,9.42a6.22,6.22,0,0,0-1.48,4.56c.19,4,.23,8.09.34,12.13.1,3.69-1.57,4.95-5.06,3.74C109.88,82,106,80.47,102,79.2a6.75,6.75,0,0,0-3.83,0c-4,1.26-7.92,2.79-11.88,4.17-3.64,1.27-5.25,0-5.15-3.85C81.16,77.44,81.12,75.38,81.12,73Zm6.43,3.54c3.29-1.15,6.67-2.5,10.15-3.48a9.22,9.22,0,0,1,4.75,0c3.45,1,6.8,2.3,10.47,3.58-.16-3.51-.17-6.6-.47-9.67a8.44,8.44,0,0,1,2.15-6.76c2.11-2.45,4-5.11,6.13-7.91-3.83-1.16-7.42-2.12-10.91-3.35a7.6,7.6,0,0,1-3.3-2.4c-2.24-2.92-4.25-6-6.52-9.31-2.09,3-4.08,5.69-5.8,8.51A7.94,7.94,0,0,1,89,49.47c-3.17.8-6.28,1.84-9.67,2.86,2.27,3,4.22,5.65,6.35,8.2a7.87,7.87,0,0,1,1.94,5.88C87.4,69.71,87.55,73,87.55,76.53Z"/><path class="cls-1" d="M172.24,83.17c-.62,3.36-1.39,6.93-1.89,10.54a6.59,6.59,0,0,0,.62,3.56c1.37,2.86,3,5.6,4.47,8.4,1.58,3,.79,4.74-2.47,5.26s-6.61.84-9.89,1.4a5.66,5.66,0,0,0-2.81,1.39c-2.23,2.14-4.3,4.45-6.44,6.69-2.93,3.08-4.81,2.8-6.6-1-1.3-2.72-2.49-5.49-3.93-8.13a6.81,6.81,0,0,0-2.55-2.56c-2.86-1.53-5.87-2.8-8.78-4.24s-3.2-3.52-.84-5.79c2.16-2.1,4.52-4,6.51-6.28A10.14,10.14,0,0,0,139.89,88c.61-2.86.76-5.82,1.11-8.73.37-3.14,2.38-4.23,5.18-2.77s5.51,3.17,8.39,4.47a8.77,8.77,0,0,0,4.48.62c3.06-.37,6.06-1.15,9.11-1.68C170.62,79.48,172.25,80.74,172.24,83.17Zm-34.45,17.51c7.34,1.85,11.56,6.47,13.67,13.58,4.11-6.36,9.74-9,17.16-8.74-4.76-5.82-5.71-12-3.12-19-7.08,2.82-13.17,1.48-19-3C146.91,91.07,144,96.52,137.79,100.68Z"/><path class="cls-1" d="M31.4,79.83c3.07.58,6.32,1.34,9.62,1.75A8.8,8.8,0,0,0,45.48,81c2.89-1.3,5.59-3,8.4-4.47s4.77-.36,5.14,2.82c.35,2.91.5,5.87,1.11,8.73a10.16,10.16,0,0,0,2.28,4.43c2.06,2.3,4.48,4.27,6.69,6.44s1.76,4.18-.88,5.5c-3,1.53-6.18,2.89-9.19,4.48a5.59,5.59,0,0,0-2.24,2.23c-1.54,2.95-2.86,6-4.34,9-1.39,2.83-3.42,3.17-5.61.94-2.4-2.44-4.66-5-7.11-7.38a5.68,5.68,0,0,0-2.83-1.36c-3.36-.57-6.76-.9-10.13-1.43-2.8-.44-3.72-2.31-2.41-4.84,1.53-3,3.26-5.82,4.71-8.81a6.57,6.57,0,0,0,.59-3.57c-.46-3.46-1.26-6.86-1.78-10.31C27.54,81.09,28.92,79.73,31.4,79.83Zm17.31,34.4c1.7-7.54,6.59-11.46,13.57-13.66-6.47-4-9-9.71-8.85-17.11-5.82,4.83-12,5.51-18.84,2.83.58,3.9,1.82,7.23,1.31,10.27s-2.75,5.9-4.5,9.36C39,105.12,44.42,108,48.71,114.23Z"/><path class="cls-1" d="M39.07,50.1c1.06-2.92-1.13-5-2.88-7.23-2.7-3.48-2.23-5.45,2-6.42a11.8,11.8,0,0,0,8-6c1.93-3.25,4.32-3.33,6.13-.14a12.19,12.19,0,0,0,8.61,6.24c3.47.76,4.22,3.1,1.82,5.74a12.27,12.27,0,0,0-3.29,10.14c.35,3.57-1.54,4.86-4.89,3.47s-6.43-1.82-10-.26c-4.18,1.86-5.63.61-5.55-4C39.08,51.27,39.07,50.88,39.07,50.1ZM49.31,37.3l-5.87,4.29,2.22,6.86H52.9l2.29-6.86Z"/><path class="cls-1" d="M140.49,50.05c1.11-2.93-1.22-5-3-7.33-2.56-3.35-2.07-5.3,2.08-6.26a11.68,11.68,0,0,0,8-5.94c2-3.35,4.34-3.37,6.27,0a12.06,12.06,0,0,0,8.46,6.07c3.49.78,4.27,3.08,1.89,5.7a12.23,12.23,0,0,0-3.3,10.14c.35,3.59-1.54,4.91-4.86,3.52s-6.6-1.83-10.18-.18c-3.86,1.77-5.42.45-5.36-3.8C140.5,51.48,140.49,51,140.49,50.05Zm16.12-8.46c-1.89-1.37-4-2.92-5.9-4.29l-5.85,4.29,2.26,6.86h7.22Z"/><path class="cls-1" d="M97.69,168.81c0,1.65-.64,3-2.6,3.17-2.18.2-3.14-1.09-3.38-3.11a68.09,68.09,0,0,0-7-23.07,80.51,80.51,0,0,0-23.68-28.15c-2-1.52-2.46-3-1.35-4.6s2.85-1.73,4.78-.25c18.11,13.92,29.82,31.73,33.08,54.65C97.63,167.85,97.64,168.24,97.69,168.81Z"/><path class="cls-1" d="M102.32,168.63a74.6,74.6,0,0,1,10-29.85,87.76,87.76,0,0,1,21.41-24.64,27.17,27.17,0,0,1,2.3-1.69c1.53-1,3-1,4.22.51s.71,3.07-.76,4.35c-3.47,3-7.14,5.82-10.32,9.12-11.37,11.79-18.73,25.64-20.76,42.08-.26,2-1,3.62-3.32,3.48C103,171.87,102.26,170.46,102.32,168.63Z"/><path class="cls-1" d="M102.92,114c0,8,.06,16-.09,24a4.36,4.36,0,0,1-1.83,3.14c-.68.41-2.24-.16-3.12-.74-.54-.35-.74-1.54-.75-2.35,0-16.09,0-32.18,0-48.28,0-2,.84-3.2,2.88-3.3,1.85-.1,2.92,1.19,2.93,3.49Q102.94,101.94,102.92,114Z"/><path class="cls-1" d="M150.9,142.58c.67.74,2.16,1.67,2.23,2.68a4.3,4.3,0,0,1-2,3.24c-2.46,1.39-5.28,2.14-7.77,3.48a38.72,38.72,0,0,0-16.92,17.16c-1.07,2.17-2.67,2.9-4.35,2.1s-2.11-2.55-1-4.7c5.94-11.73,15.48-19.22,27.76-23.45C149.29,142.94,149.76,142.86,150.9,142.58Z"/><path class="cls-1" d="M51.87,142.56c1.16.3,1.71.39,2.23.57,12.18,4.22,21.67,11.63,27.58,23.28,1.12,2.21.81,4-.86,4.75a2.88,2.88,0,0,1-4.17-1.5c-5.19-10.57-13.73-17.17-24.66-21-1.72-.6-2.88-1.75-2.33-3.54C50,144.1,51.21,143.3,51.87,142.56Z"/><path class="cls-1" d="M40.48,129.61c0,3.1-1.81,4.83-4,3.88-1.79-.75-1.93-2.3-1.91-4s0-3.2,1.88-4C38.82,124.56,40.49,126.21,40.48,129.61Z"/><path class="cls-1" d="M165.49,129.45c0,2.71-.9,4.11-2.75,4.25-2,.16-3.18-1.32-3.2-4,0-2.92,1.1-4.51,3.1-4.4S165.48,126.79,165.49,129.45Z"/><path class="cls-1" d="M44.43,139.2c-2.09.13-4-.21-4.29-2.49-.13-.89.58-2.64,1.17-2.76a14.92,14.92,0,0,1,5.69-.08c.62.11,1.44,1.79,1.34,2.68C48.11,138.8,46.37,139.38,44.43,139.2Z"/><path class="cls-1" d="M156,139.22c-2.86,0-4.47-.93-4.36-2.77.06-.95.82-2.51,1.49-2.64a13.67,13.67,0,0,1,5.48.07c.63.14,1.38,1.82,1.28,2.72C159.65,138.89,157.82,139.32,156,139.22Z"/><path class="cls-1" d="M31,133.31c2.59,0,4.06,1,4.06,2.92s-1.44,3-4,3c-.71,0-1.66.19-2.08-.19-.91-.81-2.15-2-2.11-2.9s1.38-2,2.32-2.76C29.47,133.05,30.32,133.31,31,133.31Z"/><path class="cls-1" d="M169.73,139.76c-2.1-.51-4-.52-4.39-2.58-.2-1,.42-3.07,1-3.19a14,14,0,0,1,5.87,0c.57.12,1.36,2.47.95,3.15C172.47,138.29,170.91,138.92,169.73,139.76Z"/><path class="cls-1" d="M40.48,143q0,4.23-3.08,4.12c-2-.07-2.93-1.51-2.87-4.58,0-2.44,1.11-3.8,3-3.81S40.48,140.21,40.48,143Z"/><path class="cls-1" d="M166.14,143c-.85,1.45-1.32,2.83-2.27,3.66a3.17,3.17,0,0,1-2.82,0c-2.2-1.09-2.24-6.29-.05-7.4.79-.41,2.31-.53,2.83-.06C164.81,140.12,165.3,141.55,166.14,143Z"/><path class="cls-1" d="M99.94,145.37a2.88,2.88,0,0,1,3,3.15,2.71,2.71,0,0,1-3,2.74,2.95,2.95,0,0,1,0-5.89Z"/></svg>