<svg id="Capa_1" data-name="Capa 1" xmlns="http://www.w3.org/2000/svg" viewBox="0 0 200 200"><defs><style>.cls-1{fill:#fff;}</style></defs><path class="cls-1" d="M64,81.72l-6.81,8.59c-3.76,4.75-7.7,5.11-12.22,1.11A36.14,36.14,0,0,1,71.21,28.19a35.27,35.27,0,0,1,19.62,7.45c3.48,2.69,4.07,6.78,1.4,10.3-2.48,3.27-5.09,6.46-7.63,9.7-.94,1.19-2.07,1.88-3.44.78s-.8-2.36.11-3.52c2-2.45,3.89-4.92,5.82-7.36-4.34-5.63-16.06-9-23.48-6.65,1.23,3.12,2.45,6.22,3.66,9.33,1,2.64,2.19,5.24,3.08,7.94.54,1.64,1.4,2.08,3.08,2.08q41.67-.09,83.33,0c1,0,2,0,2.92,0,4.95.1,8.12,3.5,7.67,8.44-.7,7.67-1.52,15.33-2.29,23q-1.73,17.07-3.44,34.15c-1.39,13.77-2.76,27.53-4.2,41.29a7.23,7.23,0,0,1-7.58,6.78q-34.82.06-69.63,0A7.31,7.31,0,0,1,72.68,165c-1.56-15.48-3.06-31-4.61-46.44q-1.8-18.07-3.68-36.16C64.38,82.28,64.26,82.17,64,81.72Zm51.28-19.36q-21.89,0-43.79,0c-3.48,0-4.59,1.21-4.28,4.67.62,6.77,1.25,13.55,1.93,20.32q2.43,24,4.9,48c1,9.37,1.83,18.75,2.85,28.12.39,3.58,1.2,4.15,4.78,4.15h66.92c3.5,0,4.4-.72,4.77-4.22.85-7.88,1.6-15.77,2.38-23.66,1.1-11.16,2.16-22.33,3.28-33.49,1.29-12.87,2.65-25.73,3.92-38.6.43-4.28-.59-5.28-5-5.28ZM42.92,60.7c.26.17.38.3.51.32,6.14.85,12.29,1.71,18.44,2.49a1.94,1.94,0,0,0,1.38-.74c1.13-1.35,2.17-2.78,3.4-4.39-2.31-5.87-4.74-12-7.17-18.19C51.57,42.17,43.73,51.92,42.92,60.7ZM54.37,86.92c2.06-2.61,3.79-5.17,5.9-7.37,2.67-2.79,3.88-5.73,2.93-9.64-.38-1.55-.9-2.11-2.37-2.28-4.23-.49-8.44-1.09-12.66-1.63-1.81-.23-3.63-.4-5.67-.63C43,74.62,46.93,81.57,54.37,86.92Zm-3.52,2.8C44,84.33,39.94,77.8,38.62,69.77A30.87,30.87,0,0,1,65.26,34.06c9-1.14,17,1.51,24.55,7.62-2.92-6.56-17.12-10.63-27.75-8.59C48.41,35.72,37.7,48.27,37,62.47,36.45,73.53,43.29,87.52,50.85,89.72Z"/><path class="cls-1" d="M105.86,90.41c4.32-4,8.91-4.93,14.83,1.93,1-.91,1.88-1.84,2.85-2.73,3.34-3.1,7.61-3.18,10.87,0,5,4.85,10.19,9.55,14.67,14.84,2.93,3.47,5.11,7.57,4.4,12.77-1.31,9.71-2.08,19.49-3.08,29.23-.35,3.43-.64,6.86-1,10.27-.49,4.26-2.7,6.21-7,6.22q-27.28,0-54.58,0c-4.37,0-6.57-2.12-7-6.47-1.33-13.32-2.73-26.64-4-40-.16-1.61.2-3.26.15-4.88a6.66,6.66,0,0,0-.68-2.49,29.77,29.77,0,0,1,6.15-33.74c3.65-3.55,7.06-3.46,10.41.3,3.83,4.3,7.64,8.63,11.46,12.94C104.75,89.23,105.31,89.82,105.86,90.41Zm14.68,35.85a34,34,0,0,1-2.72,3.4c-3.32,3.19-7.53,3.22-10.84.09-2.45-2.32-4.79-4.75-7.17-7.13-1.08-1.06-1.65-2.26-.39-3.5s2.44-.49,3.47.55c1.58,1.59,3.18,3.17,4.77,4.75,4.51,4.49,5.23,4.47,9.61-.25.08-.09.07-.27.22-.84-1.32-1.21-2.82-2.55-4.27-3.94s-2.91-2.82-4.29-4.3c-2.7-2.9-3.11-6.89-.85-9.82a23.23,23.23,0,0,1,4.09-4.14c.61-.46,2.35-.49,2.67-.06a3.41,3.41,0,0,1,.21,2.9c-.41,1-1.49,1.64-2.27,2.44-2.47,2.49-2.5,4-.06,6.45q6.5,6.52,13,13c2.51,2.49,4,2.5,6.45,0q6.53-6.49,13-13c2.45-2.46,2.45-4,0-6.46q-6.33-6.37-12.7-12.71c-2.91-2.91-4.18-2.91-7.09,0-2,2-3.93,4.13-6.1,6-.61.52-2,.16-3,.2a17,17,0,0,1,0-3c.07-.48.71-.88,1.45-1.71-1-.77-1.88-1.43-2.71-2.17-2-1.82-3.56-1.92-5.49,0q-7.12,7-14.13,14.13c-1.69,1.73-1.64,3.36,0,5.16.79.89,1.92,1.59,2.43,2.6.41.81.13,2,.15,3-1,0-2.18.33-3-.07a5.55,5.55,0,0,1-2.53-2.47c-1.77-4-5.11-3.73-8.55-3.55-2.76.14-3.35.68-3.09,3.36.24,2.38.49,4.76.73,7.14,1.09,11,2.15,22,3.3,33.05.34,3.29.65,3.46,3.93,3.46h51.89c4,0,4.15-.15,4.54-4.05q1.56-15.63,3.11-31.26c.25-2.55.48-5.1.77-8.26-1,1-1.59,1.45-2.1,2-4.19,4.18-8.33,8.4-12.57,12.52-3.38,3.28-7.58,3.25-11,0C122.62,128.81,121.9,127.83,120.54,126.26ZM91.78,81.06C87.08,85,84.53,89.73,84.4,96l17.18-3.82Zm-3-3.27c-1.47-1.24-2.36-.39-3.26.46a25.47,25.47,0,0,0-6,27.83c.68,1.67,1.61,1.89,3.17,1.24C77.78,96.13,79.64,86.26,88.79,77.79Zm10,20-.25-.6-14.12,3.12c1.1,2.3,1.94,4.35,3,6.25.89,1.52,2.28,1.32,3.25-.15a21.63,21.63,0,0,1,2.48-3.15C95.05,101.42,97,99.64,98.83,97.82Z"/><path class="cls-1" d="M142.82,142.15c-.41,3.9-.71,7-1.07,10.11-.16,1.38-1,2.42-2.38,2a3.14,3.14,0,0,1-1.71-2.35c.08-3.11.53-6.22.82-9.33.15-1.52.8-2.83,2.44-2.4C141.82,140.39,142.43,141.71,142.82,142.15Z"/><path class="cls-1" d="M138.74,136c.54-1.92.8-3.3,2.6-3.35,1.62,0,2.28,1.09,2.16,2.52s-.15,3.22-2.21,2.87C140.35,137.92,139.59,136.75,138.74,136Z"/></svg>