<svg id="Capa_1" data-name="Capa 1" xmlns="http://www.w3.org/2000/svg" viewBox="0 0 200 200"><defs><style>.cls-1{fill:#fff;}</style></defs><path class="cls-1" d="M79.8,100.27a9.94,9.94,0,0,0-2.6,1,9.94,9.94,0,0,1,2.6-1Z"/><path class="cls-1" d="M79.8,95.52v0Z"/><path class="cls-1" d="M92.48,110.15l0-.19Z"/><path class="cls-1" d="M75.15,102.79a9,9,0,0,1,1.66-1.31A9,9,0,0,0,75.15,102.79Z"/><path class="cls-1" d="M76.82,101.47l.36-.21Z"/><path class="cls-1" d="M91.44,106.21c0-.07-.06-.13-.08-.19S91.41,106.14,91.44,106.21Z"/><path class="cls-1" d="M91.62,106.69l-.07-.18Z"/><path class="cls-1" d="M74.88,103.08l.26-.28Z"/><path class="cls-1" d="M91.79,107.19l-.05-.14Z"/><path class="cls-1" d="M92.38,109.57c0-.08,0-.15,0-.22S92.37,109.49,92.38,109.57Z"/><path class="cls-1" d="M92.27,109c0-.07,0-.14,0-.21S92.25,108.92,92.27,109Z"/><path class="cls-1" d="M92.14,108.42c0-.06,0-.13,0-.19S92.12,108.36,92.14,108.42Z"/><path class="cls-1" d="M92,107.82l0-.12Z"/><path class="cls-1" d="M72.18,109.27l0-.2Z"/><path class="cls-1" d="M72.12,109.76l0-.19Z"/><path class="cls-1" d="M72.35,108.3a1.77,1.77,0,0,0,0-.2A1.77,1.77,0,0,1,72.35,108.3Z"/><path class="cls-1" d="M72.26,108.78a1.77,1.77,0,0,1,0-.2A1.77,1.77,0,0,0,72.26,108.78Z"/><path class="cls-1" d="M91.24,105.74a1.42,1.42,0,0,1-.08-.18A1.42,1.42,0,0,0,91.24,105.74Z"/><path class="cls-1" d="M72.08,110.26c0-.05,0-.11,0-.16S72.08,110.21,72.08,110.26Z"/><path class="cls-1" d="M169.13,175.42h0Z"/><path class="cls-1" d="M72.63,107.19l.07-.22Z"/><path class="cls-1" d="M73.47,105.1a10.94,10.94,0,0,1,.82-1.3A10.94,10.94,0,0,0,73.47,105.1Z"/><path class="cls-1" d="M74.33,103.74l.22-.27Z"/><path class="cls-1" d="M73.29,105.48c0-.09.08-.18.13-.27C73.37,105.3,73.33,105.39,73.29,105.48Z"/><path class="cls-1" d="M72.77,106.74l.09-.24Z"/><path class="cls-1" d="M73.1,105.88a1.89,1.89,0,0,0,.11-.25A1.89,1.89,0,0,1,73.1,105.88Z"/><path class="cls-1" d="M74.6,103.4l.23-.27Z"/><path class="cls-1" d="M72.46,107.81c0-.06,0-.12.05-.18S72.48,107.75,72.46,107.81Z"/><path class="cls-1" d="M72.93,106.31l.1-.25Z"/><path class="cls-1" d="M87.13,101,87,101Z"/><path class="cls-1" d="M86.35,100.66l-.17-.07Z"/><path class="cls-1" d="M86.75,100.84l-.17-.08Z"/><path class="cls-1" d="M88,101.57l-.15-.11Z"/><path class="cls-1" d="M87.62,101.32l-.14-.09Z"/><path class="cls-1" d="M91,105.26s0-.1-.08-.14S91,105.22,91,105.26Z"/><path class="cls-1" d="M88.87,102.29l.11.11Z"/><path class="cls-1" d="M86,100.51l-.19-.07Z"/><path class="cls-1" d="M85.05,100.24l-.14,0Z"/><path class="cls-1" d="M88.33,101.83l-.14-.11Z"/><path class="cls-1" d="M85.52,100.37l-.18-.06Z"/><path class="cls-1" d="M90,103.53l-.11-.15Z"/><path class="cls-1" d="M89.36,102.79l-.08-.09Z"/><path class="cls-1" d="M89.68,103.17a1.71,1.71,0,0,0-.11-.14A1.71,1.71,0,0,1,89.68,103.17Z"/><path class="cls-1" d="M90.23,103.9l-.11-.15Z"/><path class="cls-1" d="M90.72,104.7a.43.43,0,0,0,0-.07A.43.43,0,0,1,90.72,104.7Z"/><path class="cls-1" d="M90.48,104.29l-.09-.14Z"/><path class="cls-1" d="M88.66,102.11l-.13-.12Z"/><path class="cls-1" d="M172.32,37h-7c0-3.08,0-5.91,0-8.74,0-3.37-1-4.1-4.33-3.57q-19,3-38,5.91c-13.23,2.07-26.47,4.12-39.69,6.23-3.25.52-3.58,1-3.58,4.28v59.14h0a9.94,9.94,0,0,0-2.6,1h0l-.36.21h0a9,9,0,0,0-1.66,1.31h0l-.26.28,0,0-.23.27,0,.07-.22.27,0,.06a10.94,10.94,0,0,0-.82,1.3l0,.11c0,.09-.09.18-.13.27l-.08.15a1.89,1.89,0,0,1-.11.25l-.07.18-.1.25-.07.19-.09.24c0,.08,0,.15-.07.23l-.07.22-.12.44c0,.06,0,.12-.05.18s0,.19-.07.29a1.77,1.77,0,0,1,0,.2,2.33,2.33,0,0,0,0,.28,1.77,1.77,0,0,0,0,.2c0,.1,0,.19-.05.29l0,.2,0,.3,0,.19,0,.34c0,.05,0,.11,0,.16l0,.5C46.72,117.6,32.52,134,29.34,160.21c-.38,0-.7.08-1,.09-3.57.14-4.24,1-3.42,4.53.59,2.52,1.3,5,1.84,7.56.45,2.14,1.56,3.06,3.83,3.06q36.17,0,72.33,0h67.63c4.57,0,4.9-.33,4.9-4.8V40.09C175.42,38,174.38,37,172.32,37Zm-12.14-7.08v7H117.46l0-.27ZM82.25,105c2.56,0,4.31,1.57,5,4.86H77.41C77.93,106.71,79.64,105,82.25,105Zm-.83,10.1c28.15-.54,47.77,22.36,48.39,45.07H34.88C35.2,139,53.32,115.63,81.42,115.09Zm52.63,51.73c-.66,3.55-.66,3.55-4.25,3.55H35.28c-4.33,0-4.55-.22-4.68-4.9H134.16A12.08,12.08,0,0,1,134.05,166.82Zm8.76,3.62h-4.44c.37-1.48.76-3,1.16-4.43,1.15-4.13.93-6-4-5.79-.12,0-.25-.18-.26-.18-3.16-26.13-17.39-42.47-42.7-49.29l-.09-.6,0-.19c0-.13,0-.26-.07-.39s0-.15,0-.22,0-.24-.07-.36,0-.14,0-.21,0-.24-.08-.36,0-.13,0-.19l-.11-.41,0-.12c0-.18-.11-.35-.16-.51l-.05-.14-.12-.36-.07-.18c0-.1-.08-.2-.11-.3s-.06-.13-.08-.19l-.12-.28a1.42,1.42,0,0,1-.08-.18c0-.1-.1-.2-.14-.3s0-.1-.08-.14a4.13,4.13,0,0,0-.22-.42.43.43,0,0,0,0-.07l-.2-.34-.09-.14c0-.09-.11-.17-.16-.25l-.11-.15a1.77,1.77,0,0,0-.16-.22l-.11-.15-.17-.21a1.71,1.71,0,0,0-.11-.14l-.21-.24-.08-.09-.3-.3-.11-.11-.21-.18-.13-.12-.2-.16-.14-.11-.2-.15-.15-.11-.22-.14-.14-.09-.35-.2L87,101l-.26-.13-.17-.08-.23-.1-.17-.07-.23-.08-.19-.07-.24-.07-.18-.06-.29-.07-.14,0h0V42.28h85.32V170.44Z"/><path class="cls-1" d="M136.73,78.87c4.56,1.87,8.93,1.48,12.78-1.59a39.59,39.59,0,0,0,6-6A12.29,12.29,0,0,0,156,56.69a12.64,12.64,0,0,0-13.65-5.14c-3.86.93-6.23,3.77-8.81,6.38-4.54,4.57-5.4,9.23-3,15.14a2.34,2.34,0,0,1,0,1.93,34.35,34.35,0,0,1-3.14,3.13c-2-2.1-3.74-4-5.61-5.84a2.37,2.37,0,0,1-.62-3.21c2.09-4.57,1.71-9.13-1.54-13-2.42-2.85-5.4-5.23-8.15-7.84-.94,1-2,2.09-3.44,3.55,2.21,2.09,4.65,4.26,6.93,6.58,2.48,2.53,2.9,5.26,1.32,8.52l-11.42-12-4.07,3.75,12,11.75a6.75,6.75,0,0,1-8.4-1.37c-2.3-2.3-4.42-4.78-6.39-6.93l-4.31,3.84c1.9,1.77,3.78,3.43,5.56,5.2,5.8,5.77,10,6.61,17.29,3.49L124,81.9l-22.64,22.32,3.46,4.4L128.1,85.07c7.61,7.68,15.16,15.27,22.52,22.69l3.74-3.09c-4-3.94-7.79-7.72-11.61-11.47S135,85.64,131.1,81.86L134.76,78Zm-.81-16.08A33.44,33.44,0,0,1,140.73,58a7.08,7.08,0,0,1,7.81-.82,7,7,0,0,1,4.27,6.21c-.06,5.16-6.69,11.77-11.16,11.62A7.26,7.26,0,0,1,135,70.79,7,7,0,0,1,135.92,62.79Z"/><path class="cls-1" d="M120.17,119.93h32.5V115.2h-32.5Z"/><path class="cls-1" d="M130.21,129.94h22.43v-4.71H130.21Z"/><path class="cls-1" d="M137.81,140h14.78v-4.78H137.81Z"/><path class="cls-1" d="M158,119.89h4.78v-4.74H158Z"/><path class="cls-1" d="M157.92,130h4.75v-4.73h-4.75Z"/><path class="cls-1" d="M157.93,140h4.74v-4.79h-4.74Z"/><path class="cls-1" d="M45.52,141.55l4,2.3c10.29-15.25,24.31-21.12,42.27-17.75.41-1.54.79-3,1.21-4.53C74.12,116.15,53.25,126.2,45.52,141.55Z"/><path class="cls-1" d="M40.88,152.09l4.82,1.29,1.58-4.75-4.65-1.81Z"/></svg>