<svg id="Capa_1" data-name="Capa 1" xmlns="http://www.w3.org/2000/svg" viewBox="0 0 200 200"><defs><style>.cls-1{fill:#fff;}</style></defs><path class="cls-1" d="M174.21,108.3a2,2,0,0,1,0,.24A2,2,0,0,0,174.21,108.3Z"/><path class="cls-1" d="M173.93,106.8l.06.3Z"/><path class="cls-1" d="M174.08,107.53c0,.1,0,.19,0,.29C174.11,107.72,174.1,107.63,174.08,107.53Z"/><path class="cls-1" d="M173.77,106.08c0,.1,0,.2.07.31C173.82,106.28,173.79,106.18,173.77,106.08Z"/><path class="cls-1" d="M173.19,104c0,.11.07.21.1.32C173.26,104.18,173.23,104.08,173.19,104Z"/><path class="cls-1" d="M173.59,105.37c0,.1.06.21.08.31C173.65,105.58,173.62,105.47,173.59,105.37Z"/><path class="cls-1" d="M173.4,104.67l.09.31Z"/><path class="cls-1" d="M145.49,80.81l-.27,0h0Z"/><path class="cls-1" d="M145.53,146.93a37,37,0,0,0,7-1.83,37,37,0,0,1-7,1.83Z"/><path class="cls-1" d="M36.2,170.82c.15.16.3.32.46.47C36.5,171.14,36.35,171,36.2,170.82Z"/><path class="cls-1" d="M25.35,155.35a6,6,0,0,1,0-.86,6,6,0,0,0,0,.86,3.38,3.38,0,0,0,2.28,3.21A3.38,3.38,0,0,1,25.35,155.35Z"/><path class="cls-1" d="M30.2,130.86a1.41,1.41,0,0,1,0-.2,1.41,1.41,0,0,0,0,.2c0,5,0,9.94,0,14.92C30.22,140.8,30.23,135.83,30.2,130.86Z"/><path class="cls-1" d="M31.69,125.9l-.29.29Z"/><path class="cls-1" d="M29.91,159a6.94,6.94,0,0,1-2.28-.45,6.94,6.94,0,0,0,2.28.45l3.07.14c0,.45.08.83.11,1.17,0-.34-.08-.72-.11-1.17Z"/><path class="cls-1" d="M169.86,96.58l.16.26Z"/><path class="cls-1" d="M170.23,97.2l.14.25Z"/><path class="cls-1" d="M171,98.69l0,.06Z"/><path class="cls-1" d="M170.6,97.85l.12.22Z"/><path class="cls-1" d="M169.48,96l.17.27Z"/><path class="cls-1" d="M168.69,94.8l.19.26Z"/><path class="cls-1" d="M169.09,95.38l.18.26Z"/><path class="cls-1" d="M171.36,99.32l.11.23Z"/><path class="cls-1" d="M172.49,101.94c0,.1.08.2.11.3C172.57,102.14,172.53,102,172.49,101.94Z"/><path class="cls-1" d="M172.23,101.27l.12.29Z"/><path class="cls-1" d="M173,103.29c0,.1.07.2.11.31C173,103.49,173,103.39,173,103.29Z"/><path class="cls-1" d="M172.74,102.61l.11.3Z"/><path class="cls-1" d="M172,100.61l.12.29Z"/><path class="cls-1" d="M171.66,100l.12.26Z"/><path class="cls-1" d="M148,102.39l-1.47,1.35Z"/><path class="cls-1" d="M82.76,113.46c0-.18-.05-.36-.08-.52C82.71,113.1,82.74,113.28,82.76,113.46Z"/><path class="cls-1" d="M82.68,112.94c0-.17-.07-.33-.11-.48C82.61,112.61,82.65,112.77,82.68,112.94Z"/><path class="cls-1" d="M82.57,112.46c0-.11-.07-.21-.1-.3C82.5,112.25,82.54,112.35,82.57,112.46Z"/><path class="cls-1" d="M101.39,130.58l-.48,0Z"/><path class="cls-1" d="M99,130.46h0Z"/><path class="cls-1" d="M102.78,130.83a8.08,8.08,0,0,0-1.17-.23A8.08,8.08,0,0,1,102.78,130.83Z"/><path class="cls-1" d="M100.66,130.52c-.51,0-1.08-.05-1.71-.06C99.58,130.47,100.15,130.48,100.66,130.52Z"/><path class="cls-1" d="M42.52,33.86a4,4,0,0,1,.61-.33A4,4,0,0,0,42.52,33.86Z"/><path class="cls-1" d="M43.37,33.44a7.32,7.32,0,0,1,.78-.21A7.32,7.32,0,0,0,43.37,33.44Z"/><path class="cls-1" d="M41.46,35.3a3.62,3.62,0,0,1,.2-.44A3.62,3.62,0,0,0,41.46,35.3Z"/><path class="cls-1" d="M41,80.37q0-21,0-41.94Q41,59.4,41,80.37Z"/><path class="cls-1" d="M82.37,111.91a4.79,4.79,0,0,0-.25-.45A4.79,4.79,0,0,1,82.37,111.91Z"/><path class="cls-1" d="M41.2,36.35c0-.19.07-.38.11-.56C41.27,36,41.23,36.16,41.2,36.35Z"/><path class="cls-1" d="M41.58,159c-.16.5-.3,1-.4,1.43.1-.45.24-.93.4-1.43Z"/><path class="cls-1" d="M128.34,47.86,120,39.51Z"/><path class="cls-1" d="M43.56,166.51a5,5,0,0,1-1.15-.62A5,5,0,0,0,43.56,166.51Z"/><path class="cls-1" d="M41.43,164.76a3.64,3.64,0,0,1-.25-.57A3.64,3.64,0,0,0,41.43,164.76Z"/><path class="cls-1" d="M41.09,163.89a4.54,4.54,0,0,1-.16-1A4.54,4.54,0,0,0,41.09,163.89Z"/><path class="cls-1" d="M157.56,93.52l-3-1.33,3,1.33Z"/><path class="cls-1" d="M168.28,94.22l.19.26Z"/><path class="cls-1" d="M151.61,90.9l2.93,1.29Z"/><path class="cls-1" d="M40.92,162.52a7.21,7.21,0,0,1,0-.79A7.21,7.21,0,0,0,40.92,162.52Z"/><path class="cls-1" d="M109.91,156.14a4.16,4.16,0,0,0,.11-.72A4.16,4.16,0,0,1,109.91,156.14Z"/><path class="cls-1" d="M103.53,131.14l-.28-.14Z"/><path class="cls-1" d="M109.24,157.58a3.11,3.11,0,0,0,.34-.52A3.11,3.11,0,0,1,109.24,157.58Z"/><path class="cls-1" d="M41,161.73a9.68,9.68,0,0,1,.22-1.29A9.68,9.68,0,0,0,41,161.73Z"/><path class="cls-1" d="M103.25,131l-.31-.12Z"/><path class="cls-1" d="M148.76,81.37l.34.08Z"/><path class="cls-1" d="M144.64,52.77a7.22,7.22,0,0,1,.66,1.52A7.22,7.22,0,0,0,144.64,52.77Z"/><path class="cls-1" d="M167.86,93.66c.07.08.13.17.2.26C168,93.83,167.93,93.74,167.86,93.66Z"/><path class="cls-1" d="M145.5,56.23c.06,2,.09,4.84.1,7.92C145.62,61.51,145.59,58.86,145.5,56.23Z"/><path class="cls-1" d="M33,123.81l.06-.69Z"/><path class="cls-1" d="M31.16,126.5l.24-.31Z"/><path class="cls-1" d="M33.09,122.9c0-.15,0-.3,0-.44C33.09,122.6,33.09,122.75,33.09,122.9Z"/><path class="cls-1" d="M145.93,80.86l.33,0Z"/><path class="cls-1" d="M150.15,81.72l.34.09Z"/><path class="cls-1" d="M44.15,33.23c.19,0,.39-.07.61-.09C44.54,33.16,44.34,33.2,44.15,33.23Z"/><path class="cls-1" d="M149.46,81.54l.34.09Z"/><path class="cls-1" d="M150.83,81.91l.34.11Z"/><path class="cls-1" d="M30.8,127.09a2.67,2.67,0,0,1,.25-.43A2.67,2.67,0,0,0,30.8,127.09Z"/><path class="cls-1" d="M148.06,81.22l.34.08Z"/><path class="cls-1" d="M147.36,81.09l.34.06Z"/><path class="cls-1" d="M146.65,81l.33,0Z"/><path class="cls-1" d="M43.87,174.75a14.66,14.66,0,0,1-3.08-.85A14.66,14.66,0,0,0,43.87,174.75Z"/><path class="cls-1" d="M39.08,173.09q-.42-.24-.81-.51Q38.66,172.85,39.08,173.09Z"/><path class="cls-1" d="M35.28,169.71q-.42-.6-.78-1.23Q34.86,169.11,35.28,169.71Z"/><path class="cls-1" d="M30.45,128a4.8,4.8,0,0,1,.29-.8A4.8,4.8,0,0,0,30.45,128Z"/><path class="cls-1" d="M156.52,143.36c-.5.26-1,.51-1.54.75C155.5,143.87,156,143.62,156.52,143.36Z"/><path class="cls-1" d="M160.13,141.2c-.45.31-.92.61-1.4.91C159.21,141.81,159.68,141.51,160.13,141.2Z"/><path class="cls-1" d="M47.12,175h0a19.71,19.71,0,0,1-2.47-.13A19.71,19.71,0,0,0,47.12,175Z"/><path class="cls-1" d="M30.24,129.29l0-.36Z"/><path class="cls-1" d="M34.5,168.48A12.65,12.65,0,0,1,34,167.3,12.65,12.65,0,0,0,34.5,168.48Z"/><path class="cls-1" d="M30.19,130.66c0-.41,0-.8,0-1.18C30.2,129.86,30.19,130.25,30.19,130.66Z"/><path class="cls-1" d="M30.28,128.89c0-.12,0-.23,0-.35C30.31,128.66,30.29,128.77,30.28,128.89Z"/><path class="cls-1" d="M29.88,150.88l.33-.12Z"/><path class="cls-1" d="M25.4,154.39a3.75,3.75,0,0,1,.29-1.06A3.75,3.75,0,0,0,25.4,154.39Z"/><path class="cls-1" d="M145.3,54.29c0,.18.08.35.11.52C145.38,54.64,145.35,54.47,145.3,54.29Z"/><path class="cls-1" d="M160.59,86.66l.27.19Z"/><path class="cls-1" d="M163.91,89.34l.19.18Z"/><path class="cls-1" d="M164.59,90l.13.12Z"/><path class="cls-1" d="M162.82,88.38l.24.2Z"/><path class="cls-1" d="M161.16,87.07l.27.2Z"/><path class="cls-1" d="M161.72,87.49l.26.21Z"/><path class="cls-1" d="M162.27,87.93l.25.2Z"/><path class="cls-1" d="M163.36,88.85l.23.19Z"/><path class="cls-1" d="M167,92.56l.21.25Z"/><path class="cls-1" d="M165.1,90.49l.19.19Z"/><path class="cls-1" d="M166.53,92l.21.24Z"/><path class="cls-1" d="M167.43,93.1l.2.26Z"/><path class="cls-1" d="M165.59,91l.2.22Z"/><path class="cls-1" d="M166.06,91.5l.21.24Z"/><path class="cls-1" d="M156.39,84.12l.27.14Z"/><path class="cls-1" d="M153.52,82.84l.32.12Z"/><path class="cls-1" d="M155.66,83.77l.31.15Z"/><path class="cls-1" d="M160,86.26l.28.19Z"/><path class="cls-1" d="M154.19,83.11l.3.12Z"/><path class="cls-1" d="M152.86,82.59l.32.11Z"/><path class="cls-1" d="M152.19,82.35l.32.11Z"/><path class="cls-1" d="M154.86,83.4l.27.12Z"/><path class="cls-1" d="M158.24,85.13l.28.18Z"/><path class="cls-1" d="M158.84,85.5l.28.17Z"/><path class="cls-1" d="M159.43,85.87l.28.18Z"/><path class="cls-1" d="M157,84.45l.29.15Z"/><path class="cls-1" d="M151.51,82.12l.33.11Z"/><path class="cls-1" d="M157.63,84.78l.28.17Z"/><path class="cls-1" d="M110.07,103.13c0,.1-.07.2-.11.31C110,103.33,110,103.23,110.07,103.13Z"/><path class="cls-1" d="M108.93,33.05l.69,0-.69,0h0Z"/><path class="cls-1" d="M73.11,109.88l5,0a8.53,8.53,0,0,1,2.19.26,8.53,8.53,0,0,0-2.19-.26Z"/><path class="cls-1" d="M80.5,110.24a3.12,3.12,0,0,1,1.38.89A3.12,3.12,0,0,0,80.5,110.24Z"/><path class="cls-1" d="M42.52,33.86a2.76,2.76,0,0,0-.62.61A2.76,2.76,0,0,1,42.52,33.86Z"/><path class="cls-1" d="M95.13,130.44h0Z"/><path class="cls-1" d="M44.76,33.14q.63-.07,1.41-.09Q45.39,33.07,44.76,33.14Z"/><path class="cls-1" d="M58.18,109.89c5,0,9.95,0,14.93,0C68.13,109.87,63.16,109.89,58.18,109.89Z"/><path class="cls-1" d="M74.38,159h0Z"/><path class="cls-1" d="M82.94,144.23v0Z"/><path class="cls-1" d="M83,138.44c0,1.46,0,2.91,0,4.35,0-1.44,0-2.89,0-4.35Z"/><path class="cls-1" d="M136.27,166c-.91.76-2.34,1-4.54,1H46.83a10,10,0,0,1-2.93-.38,10,10,0,0,0,2.93.38h84.9C133.93,167,135.36,166.74,136.27,166Z"/><path class="cls-1" d="M41.76,165.25a2.85,2.85,0,0,0,.41.44A2.85,2.85,0,0,1,41.76,165.25Z"/><path class="cls-1" d="M75.59,96.08h0Z"/><path class="cls-1" d="M118.81,138c-.69-.65-1.35-1.33-2-2.05C117.46,136.63,118.12,137.31,118.81,138Z"/><path class="cls-1" d="M137.65,152.29v0Z"/><path class="cls-1" d="M137.65,148.67c0-.61,0-1.22,0-1.83l-1-.18,1,.18C137.64,147.45,137.64,148.06,137.65,148.67Z"/><path class="cls-1" d="M133.69,146c.64.17,1.29.32,1.95.46C135,146.31,134.33,146.16,133.69,146Z"/><path class="cls-1" d="M108.89,120.18c.13.66.29,1.31.46,1.95C109.18,121.49,109,120.84,108.89,120.18Z"/><path class="cls-1" d="M120.21,139.21c.48.4,1,.79,1.47,1.16C121.18,140,120.69,139.61,120.21,139.21Z"/><path class="cls-1" d="M92.33,151.11h0Z"/><path class="cls-1" d="M134.69,58.71h0Z"/><path class="cls-1" d="M111.85,36.37v0Z"/><path class="cls-1" d="M111.85,49.54v0Z"/><path class="cls-1" d="M137.63,66.73c0-3.29,0-6.35,0-8C137.67,61.51,137.59,64.15,137.63,66.73Z"/><path class="cls-1" d="M117.72,90.63l.3-.31Z"/><path class="cls-1" d="M108.51,110.06l.09-.7h0Z"/><path class="cls-1" d="M127.32,92.85c.42-.3.85-.58,1.28-.85C128.17,92.27,127.74,92.55,127.32,92.85Z"/><path class="cls-1" d="M143,117c.22-.09.43-.2.64-.31C143.47,116.76,143.26,116.87,143,117Z"/><path class="cls-1" d="M163.19,101.15a15.59,15.59,0,0,1,.86,1.31A15.59,15.59,0,0,0,163.19,101.15Z"/><path class="cls-1" d="M164.05,102.46c.26.45.51.93.74,1.42C164.56,103.39,164.31,102.91,164.05,102.46Z"/><path class="cls-1" d="M117.93,123.06c-.2-.57-.39-1.14-.54-1.73C117.54,121.92,117.73,122.49,117.93,123.06Z"/><path class="cls-1" d="M131.72,137c-.62-.26-1.23-.55-1.82-.85C130.49,136.45,131.1,136.74,131.72,137Z"/><path class="cls-1" d="M116.81,117.8a18.44,18.44,0,0,0,.58,3.53,18.44,18.44,0,0,1-.58-3.53Z"/><path class="cls-1" d="M165.11,104.64c.21.51.39,1,.56,1.57C165.5,105.67,165.32,105.15,165.11,104.64Z"/><path class="cls-1" d="M166.11,107.86c.13.57.23,1.14.32,1.72C166.34,109,166.24,108.43,166.11,107.86Z"/><path class="cls-1" d="M135.58,138.27l1,.23a28.73,28.73,0,0,0,3,.44,28.73,28.73,0,0,1-3-.44Z"/><path class="cls-1" d="M174.36,109.27h0a31.5,31.5,0,0,1,.29,4A31.5,31.5,0,0,0,174.36,109.27Z"/><path class="cls-1" d="M166.43,109.58a26.22,26.22,0,0,1,.25,2.67A26.22,26.22,0,0,0,166.43,109.58Z"/><path class="cls-1" d="M151.56,109.85q-3.21,3-6.48,5.83a7.52,7.52,0,0,1-1.1.79,7.52,7.52,0,0,0,1.1-.79Q148.35,112.82,151.56,109.85Z"/><path class="cls-1" d="M133,89.9a13.55,13.55,0,0,0-1.34.5A13.55,13.55,0,0,1,133,89.9Z"/><path class="cls-1" d="M143.56,139c-.65,0-1.3.06-2,.06C142.26,139,142.91,139,143.56,139Z"/><path class="cls-1" d="M92.33,151.11h4.88V138.44h0V151.1Z"/><path class="cls-1" d="M83.05,150.11a1.68,1.68,0,0,0,.46.53A1.68,1.68,0,0,1,83.05,150.11Z"/><path class="cls-1" d="M137.45,89.15a13.92,13.92,0,0,0-4.43.75,13.92,13.92,0,0,1,4.43-.75Z"/><path class="cls-1" d="M83,147.09c0,1,0,1.91.05,2.86,0,0,0,.05,0,.07s0-.05,0-.07C83,149,83,148.05,83,147.09Z"/><path class="cls-1" d="M83.51,150.64a1.53,1.53,0,0,0,.84.41l1.58,0-1.58,0A1.53,1.53,0,0,1,83.51,150.64Z"/><path class="cls-1" d="M130.35,91c.44-.22.88-.42,1.33-.61C131.23,90.59,130.79,90.79,130.35,91Z"/><path class="cls-1" d="M121.3,98.65c.22-.28.43-.55.66-.82C121.73,98.1,121.52,98.37,121.3,98.65Z"/><path class="cls-1" d="M83,147.09c0-1,0-1.9,0-2.86C82.94,145.19,83,146.14,83,147.09Z"/><path class="cls-1" d="M128.6,92c.43-.27.87-.52,1.31-.76C129.47,91.48,129,91.73,128.6,92Z"/><path class="cls-1" d="M108.36,116.26c.08,1.06.21,2.12.39,3.17C108.57,118.38,108.44,117.32,108.36,116.26Z"/><path class="cls-1" d="M52.55,125h0c0-3.1,0-6.2,0-9.3C52.54,118.75,52.55,121.85,52.55,125Z"/><path class="cls-1" d="M124.48,85.29l-.45.27Z"/><path class="cls-1" d="M119.58,88.86l-.36.32Z"/><path class="cls-1" d="M120.12,88.4l-.41.34Z"/><path class="cls-1" d="M122.2,86.78c-.7.5-1.39,1-2,1.59C120.81,87.82,121.5,87.28,122.2,86.78Z"/><path class="cls-1" d="M123.88,85.65c-.14.1-.29.19-.44.28C123.59,85.84,123.74,85.75,123.88,85.65Z"/><path class="cls-1" d="M123.3,86l-.44.29Z"/><path class="cls-1" d="M122.73,86.41l-.45.31Z"/><path class="cls-1" d="M119.05,89.34l-.33.31Z"/><path class="cls-1" d="M116.1,92.41l-.27.33Z"/><path class="cls-1" d="M117,91.35l-.29.31Z"/><path class="cls-1" d="M116.57,91.87l-.28.32Z"/><path class="cls-1" d="M117.53,90.83l-.3.31Z"/><path class="cls-1" d="M118.53,89.82l-.32.31Z"/><path class="cls-1" d="M133.36,81.6l-.6.15Z"/><path class="cls-1" d="M125.09,84.93l-.46.27Z"/><path class="cls-1" d="M115.66,93c-.32.39-.63.8-.93,1.21C115,93.75,115.34,93.34,115.66,93Z"/><path class="cls-1" d="M108.28,114.18c0,.67,0,1.33.08,2C108.31,115.51,108.29,114.85,108.28,114.18Z"/><path class="cls-1" d="M130.88,58.71h0Z"/><path class="cls-1" d="M123.26,58.72h0Z"/><path class="cls-1" d="M132.67,81.78l-.57.16Z"/><path class="cls-1" d="M138.17,80.74a34.2,34.2,0,0,0-4.75.84A34.2,34.2,0,0,1,138.17,80.74Z"/><path class="cls-1" d="M130.06,82.62a34.66,34.66,0,0,0-3.69,1.62A34.66,34.66,0,0,1,130.06,82.62Z"/><path class="cls-1" d="M126.33,84.26l-.52.28Z"/><path class="cls-1" d="M125.7,84.59l-.48.27Z"/><path class="cls-1" d="M132,82l-.57.18Z"/><path class="cls-1" d="M130.68,82.4c-.19.06-.39.13-.58.21C130.29,82.53,130.49,82.46,130.68,82.4Z"/><path class="cls-1" d="M131.33,82.18l-.57.19Z"/><path class="cls-1" d="M134.69,58.71h0Z"/><path class="cls-1" d="M110.57,101.73c0,.09-.06.18-.1.27C110.51,101.91,110.54,101.82,110.57,101.73Z"/><path class="cls-1" d="M111.25,100.12l-.12.26Z"/><path class="cls-1" d="M110.31,102.42c0,.1-.07.2-.1.3C110.24,102.62,110.28,102.52,110.31,102.42Z"/><path class="cls-1" d="M109.83,103.84l-.09.31Z"/><path class="cls-1" d="M112.25,98.1l-.17.31Z"/><path class="cls-1" d="M111.58,99.42c0,.1-.1.19-.14.29C111.48,99.61,111.53,99.52,111.58,99.42Z"/><path class="cls-1" d="M111.91,98.75c-.06.1-.11.2-.16.3C111.8,99,111.85,98.85,111.91,98.75Z"/><path class="cls-1" d="M109.23,106c0,.11,0,.22-.08.33C109.18,106.24,109.21,106.13,109.23,106Z"/><path class="cls-1" d="M108.76,108.35a1.87,1.87,0,0,0,0,.25A1.87,1.87,0,0,1,108.76,108.35Z"/><path class="cls-1" d="M108.51,110.06a33.8,33.8,0,0,0-.23,4.12A33.8,33.8,0,0,1,108.51,110.06Z"/><path class="cls-1" d="M108.9,107.54c0,.1,0,.2-.05.3C108.86,107.74,108.88,107.64,108.9,107.54Z"/><path class="cls-1" d="M109.62,104.56l-.09.32Z"/><path class="cls-1" d="M109.42,105.29l-.09.32Z"/><path class="cls-1" d="M109.06,106.77c0,.11,0,.21-.07.32C109,107,109,106.88,109.06,106.77Z"/><path class="cls-1" d="M112.6,97.46a3.07,3.07,0,0,0-.17.31A3.07,3.07,0,0,1,112.6,97.46Z"/><path class="cls-1" d="M110.85,101.05a1.11,1.11,0,0,0-.07.16A1.11,1.11,0,0,1,110.85,101.05Z"/><path class="cls-1" d="M114.55,94.41l-.23.31Z"/><path class="cls-1" d="M113,96.83l-.18.31Z"/><path class="cls-1" d="M114.13,95l-.21.31Z"/><path class="cls-1" d="M113.73,95.6l-.2.31Z"/><path class="cls-1" d="M113.34,96.21c-.06.1-.13.2-.19.31C113.21,96.41,113.28,96.31,113.34,96.21Z"/><path class="cls-1" d="M174.36,109.27c0-.25-.07-.49-.11-.73a2,2,0,0,0,0-.24c0-.16-.05-.32-.08-.48s0-.19,0-.29l-.09-.43-.06-.3-.09-.41c0-.11-.05-.21-.07-.31s-.06-.27-.1-.4,0-.21-.08-.31-.07-.26-.1-.39l-.09-.31c0-.13-.07-.26-.11-.38s-.06-.21-.1-.32-.07-.25-.11-.37-.07-.21-.11-.31l-.12-.38-.11-.3c0-.13-.09-.25-.14-.37s-.07-.2-.11-.3-.1-.25-.14-.38l-.12-.29c0-.12-.1-.25-.16-.37l-.12-.29-.17-.38-.12-.26-.19-.42-.11-.23c-.09-.19-.19-.38-.29-.57l0-.06c-.1-.21-.21-.42-.32-.62l-.12-.22-.23-.4-.14-.25-.21-.36-.16-.26-.21-.34-.17-.27-.21-.33-.18-.26-.21-.32-.19-.26-.22-.32-.19-.26-.22-.3c-.07-.09-.13-.18-.2-.26l-.23-.3-.2-.26-.24-.29-.21-.25-.24-.29-.21-.24c-.09-.1-.17-.2-.26-.29l-.21-.24-.27-.29-.2-.22-.3-.31-.19-.19-.38-.39-.13-.12-.49-.46-.19-.18-.32-.3-.23-.19-.3-.27-.24-.2-.3-.25-.25-.2L162,87.7l-.26-.21-.29-.22-.27-.2-.3-.22-.27-.19-.3-.21-.28-.19-.3-.21-.28-.18-.31-.2-.28-.17-.32-.19-.28-.18-.33-.18-.28-.17-.33-.18-.29-.15-.35-.19-.27-.14-.42-.2-.31-.15-.53-.25-.27-.12-.37-.17-.3-.12-.35-.15-.32-.12-.34-.14-.32-.11-.35-.13-.32-.11-.35-.12-.33-.11-.34-.1-.34-.11-.34-.1-.34-.09-.35-.09-.34-.09-.36-.09-.34-.08-.36-.07-.34-.08-.36-.07-.34-.06L147,81l-.33,0-.39-.06-.33,0-.44,0-.27,0h0a5.73,5.73,0,0,0,.3-1.75c.06-3,.1-9.31.08-14.88,0-3.08,0-5.94-.1-7.92,0-.33,0-.64,0-.92a4.53,4.53,0,0,0-.06-.5c0-.17-.06-.34-.11-.52a7.22,7.22,0,0,0-.66-1.52,7.06,7.06,0,0,0-.8-1.1l-.17-.19q-2.5-2.55-5-5c-3.82-3.76-7.68-7.48-11.37-11.35-1.24-1.29-2.45-2.59-3.64-3.92a21.16,21.16,0,0,0-2.78-2.63c-.27-.21-.54-.41-.82-.6a15.48,15.48,0,0,0-1.69-1,19.07,19.07,0,0,0-9.48-1.9q-3.95.07-7.89.12c-18.41.22-36.83,0-55.25,0a13.17,13.17,0,0,0-7.8,2.31l-.36.27A10.91,10.91,0,0,0,33.94,33a17,17,0,0,0-.71,4.23l0,.72c0,.23,0,.47,0,.71q-.09,41.79-.09,83.6v.2c0,.14,0,.29,0,.44a1.62,1.62,0,0,0,0,.22l-.06.69a2.23,2.23,0,0,1-.64,1.53,4.94,4.94,0,0,0-.69.56l-.29.29-.24.31-.11.16a2.67,2.67,0,0,0-.25.43l-.06.11a4.8,4.8,0,0,0-.29.8,5.23,5.23,0,0,0-.12.54c0,.12,0,.23,0,.35v0l0,.36c0,.06,0,.12,0,.19,0,.38,0,.77,0,1.18h0a1.41,1.41,0,0,0,0,.2c0,5,0,9.94,0,14.92v5l-.33.12-.55.19-.25.06a5.81,5.81,0,0,0-1.62.46,4,4,0,0,0-.93.59,3,3,0,0,0-.25.25,3.26,3.26,0,0,0-.59.9,3.75,3.75,0,0,0-.29,1.06s0,.07,0,.1a6,6,0,0,0,0,.86,3.38,3.38,0,0,0,2.28,3.21,6.94,6.94,0,0,0,2.28.45l3.07.14c0,.45.08.83.11,1.17a6,6,0,0,1,0,.72,1.62,1.62,0,0,1,0,.22c0,.48-.06,1-.06,1.43a13.25,13.25,0,0,0,.47,3.37A13,13,0,0,0,34,167.3a12.65,12.65,0,0,0,.55,1.18q.36.63.78,1.23a10.83,10.83,0,0,0,.92,1.11c.15.16.3.32.46.47a12,12,0,0,0,1.61,1.29q.39.27.81.51c.19.11.4.22.61.32s.72.34,1.1.49a14.66,14.66,0,0,0,3.08.85c.25.05.51.08.78.12a19.71,19.71,0,0,0,2.47.13h0c28.29-.28,56.59-.1,84.89-.11a16.5,16.5,0,0,0,7.06-1.36l.57-.28a11.06,11.06,0,0,0,1.54-1A10.43,10.43,0,0,0,142.5,171a11.76,11.76,0,0,0,.75-1,11.36,11.36,0,0,0,1.4-2.86,18.56,18.56,0,0,0,.88-5.91V146.93h0a37,37,0,0,0,7-1.83c.83-.3,1.64-.63,2.42-1,.52-.24,1-.49,1.54-.75.76-.4,1.5-.81,2.21-1.25.48-.3,1-.6,1.4-.91A33.31,33.31,0,0,0,170.39,130c.26-.46.51-.93.74-1.4a33.44,33.44,0,0,0,3.52-15.29,31.5,31.5,0,0,0-.29-4ZM154.54,92.19l3,1.33h0L153,97.71,148,102.39l-1.47,1.35-.74.69V88.31h0l3,1.31,2.9,1.28Zm-26.2-44.33,2.78,2.77H120V39.51ZM38.24,151V133.17h14V151Zm5.66,15.68-.34-.12a5,5,0,0,1-1.15-.62l-.24-.2a2.85,2.85,0,0,1-.41-.44,2.63,2.63,0,0,1-.33-.49,3.64,3.64,0,0,1-.25-.57,1.71,1.71,0,0,1-.09-.3,4.54,4.54,0,0,1-.16-1c0-.12,0-.24,0-.36a7.21,7.21,0,0,1,0-.79,9.68,9.68,0,0,1,.22-1.29c.1-.45.24-.93.4-1.43h62.28a17.15,17.15,0,0,0,2.87-.11,4.46,4.46,0,0,0,1.59-.54,3.16,3.16,0,0,0,.92-.78,3.11,3.11,0,0,0,.34-.52,2.39,2.39,0,0,0,.13-.28,4,4,0,0,0,.2-.64,4.16,4.16,0,0,0,.11-.72,3.59,3.59,0,0,0-1.94-3.77,6.4,6.4,0,0,0-.65-.29,19.42,19.42,0,0,0-2.18-.53V138.75c0-4.67-.08-6.72-1.72-7.61l-.28-.14-.31-.12-.16,0a8.08,8.08,0,0,0-1.17-.23l-.22,0-.48,0-.25,0c-.51,0-1.08-.05-1.71-.06H82.84c0-5.51,0-10.64,0-15.78a8.91,8.91,0,0,0,0-.92l0-.28c0-.18-.05-.36-.08-.52s-.07-.33-.11-.48-.07-.21-.1-.3l-.1-.25a4.79,4.79,0,0,0-.25-.45,2.52,2.52,0,0,0-.24-.33,3.12,3.12,0,0,0-1.38-.89l-.22-.08a8.53,8.53,0,0,0-2.19-.26l-5,0c-5,0-10,0-14.93,0a17.88,17.88,0,0,0-1.91.09,6,6,0,0,0-.63.09l-.56.13a3,3,0,0,0-1.73,1.14l-.12.2a4.3,4.3,0,0,0-.44,1.21c0,.19-.08.4-.11.61a18.55,18.55,0,0,0-.13,2.29h0c0,3.1,0,6.2,0,9.3H41.18c0-.49-.06-.94-.09-1.38,0-.22,0-.43,0-.65s0-.42,0-.63q0-21,0-41.92t0-41.94a12.68,12.68,0,0,1,.14-2.08c0-.19.07-.38.11-.56s.1-.34.15-.49a3.62,3.62,0,0,1,.2-.44,2.55,2.55,0,0,1,.24-.39,2.76,2.76,0,0,1,.62-.61,4,4,0,0,1,.61-.33l.24-.09a7.32,7.32,0,0,1,.78-.21c.19,0,.39-.07.61-.09q.63-.07,1.41-.09h62.76l.69,0,1.07.06,1.16.08V49.54c0,1.46,0,2.93,0,4.39a8.62,8.62,0,0,0,.21,2,3.28,3.28,0,0,0,.21.67,2.87,2.87,0,0,0,1.31,1.53,3.72,3.72,0,0,0,.81.34,8.41,8.41,0,0,0,2.18.27h21.09c0,1.67,0,4.73,0,8,0,4.81,0,10.13.13,12.34a6,6,0,0,0,.41,1.67h0a34.2,34.2,0,0,0-4.75.84l-.06,0-.6.15-.09,0-.57.16-.1,0-.57.18-.1,0-.57.19-.08,0c-.19.06-.39.13-.58.21h0a34.66,34.66,0,0,0-3.69,1.62l0,0-.52.28-.11,0-.48.27-.13.07-.46.27-.15.09-.45.27-.15.09c-.14.1-.29.19-.44.28l-.14.1-.44.29-.13.09-.45.31-.08.06c-.7.5-1.39,1-2,1.59l0,0-.41.34-.13.12-.36.32-.17.16-.33.31-.19.17-.32.31c-.06.06-.12.13-.19.19l-.3.31a1.8,1.8,0,0,0-.19.2l-.3.31-.19.21-.29.31-.18.21-.28.32a2,2,0,0,1-.19.22l-.27.33-.17.21c-.32.39-.63.8-.93,1.21l-.18.25-.23.31c-.06.09-.12.19-.19.28l-.21.31-.19.29-.2.31-.19.3c-.06.1-.13.2-.19.31l-.19.31-.18.31-.18.32a3.07,3.07,0,0,0-.17.31c-.07.11-.12.22-.18.33l-.17.31c-.06.11-.12.23-.17.34s-.11.2-.16.3-.12.25-.17.37-.1.19-.14.29-.13.28-.19.41l-.12.26c-.09.22-.19.44-.28.67a1.11,1.11,0,0,0-.07.16l-.21.52c0,.09-.06.18-.1.27l-.16.42c0,.1-.07.2-.1.3s-.1.27-.14.41-.07.2-.11.31-.08.26-.13.4l-.09.31-.12.41-.09.32c0,.13-.08.27-.11.41l-.09.32c0,.14-.07.28-.1.41s0,.22-.08.33l-.09.42c0,.11,0,.21-.07.32l-.09.45c0,.1,0,.2-.05.3s-.06.34-.09.51a1.87,1.87,0,0,0,0,.25c0,.25-.08.5-.12.76h0l-.09.7a33.8,33.8,0,0,0-.23,4.12c0,.67,0,1.33.08,2v.09c.08,1.06.21,2.12.39,3.17,0,.25.09.5.14.75.13.66.29,1.31.46,1.95a33.25,33.25,0,0,0,3.42,8.14,35,35,0,0,0,4,5.64c.64.72,1.3,1.4,2,2.05.45.43.92.85,1.4,1.25s1,.79,1.47,1.16a34.66,34.66,0,0,0,12,5.62c.64.17,1.29.32,1.95.46.33.08.66.14,1,.21l1,.18c0,.61,0,1.22,0,1.83v7.19c0,1.78,0,3.54,0,5.31,0,.58,0,1.1-.06,1.58a8.74,8.74,0,0,1-.14,1l-.06.3c0,.19-.11.37-.17.54a3.13,3.13,0,0,1-.94,1.4c-.91.76-2.34,1-4.54,1H46.83A10,10,0,0,1,43.9,166.63Zm39-23.84c0-1.44,0-2.89,0-4.35H97.21V151.1H90.72c-1.6,0-3.2,0-4.79,0l-1.58,0a1.53,1.53,0,0,1-.84-.41,1.68,1.68,0,0,1-.46-.53l0-.09s0-.05,0-.07c0-.95,0-1.9-.05-2.86s0-1.9,0-2.86h0Zm-8.13,8.11H60.62v-33H74.81Zm62.64-61.75h0v20.61H116.86c0-3.69,1.79-7.66,4.44-11.11.22-.28.43-.55.66-.82a28.06,28.06,0,0,1,5.36-5c.42-.3.85-.58,1.28-.85s.87-.52,1.31-.76l.44-.23c.44-.22.88-.42,1.33-.61a13.55,13.55,0,0,1,1.34-.5A13.92,13.92,0,0,1,137.45,89.15Zm29.25,24.92c0,.61,0,1.22-.11,1.83,0,.31-.06.62-.1.92-.08.61-.17,1.22-.29,1.83a24.58,24.58,0,0,1-2.86,7.72,25.4,25.4,0,0,1-1.7,2.57q-.6.81-1.26,1.56a25.26,25.26,0,0,1-4.33,4c-.52.37-1.05.73-1.6,1.06A24.24,24.24,0,0,1,143.56,139c-.65,0-1.3.06-2,.06s-1.33,0-2-.09a28.73,28.73,0,0,1-3-.44l-1-.23a25.28,25.28,0,0,1-3.86-1.27c-.62-.26-1.23-.55-1.82-.85-.3-.15-.59-.31-.88-.47-.58-.33-1.14-.67-1.69-1a24.21,24.21,0,0,1-9.4-11.58c-.2-.57-.39-1.14-.54-1.73a18.44,18.44,0,0,1-.58-3.53h0c3.94,0,7.83,0,11.69,0q4.35,0,8.65-.06c1,0,1.92,0,2.88-.06l.66-.06A8.19,8.19,0,0,0,143,117c.22-.09.43-.2.64-.31l.3-.18a7.52,7.52,0,0,0,1.1-.79q3.27-2.87,6.48-5.83c3.57-3.27,7.09-6.59,10.65-9.88a14.26,14.26,0,0,1,1,1.18,15.59,15.59,0,0,1,.86,1.31c.26.45.51.93.74,1.42.11.25.22.5.32.76.21.51.39,1,.56,1.57s.32,1.09.44,1.65.23,1.14.32,1.72a26.22,26.22,0,0,1,.25,2.67C166.71,112.86,166.71,113.46,166.7,114.07Z"/><path class="cls-1" d="M99,38.13q-23.41,0-46.82,0c-3.57,0-4.79,1.27-4.82,4.94,0,4,0,8,0,12s1.22,5.18,5.12,5.18c7.67,0,15.34,0,23,0,7.84,0,15.69,0,23.54,0,3.44,0,4.79-1.29,4.83-4.68q.09-6.42,0-12.82C103.84,39.35,102.56,38.13,99,38.13Zm-43.61,8H95.79v6.08H55.42Z"/><path class="cls-1" d="M100.73,96.23a12.49,12.49,0,0,0-2.6-.14H55.94a45.71,45.71,0,0,0-5,.09A3.59,3.59,0,0,0,47.45,100a3.65,3.65,0,0,0,3.48,3.88A13.19,13.19,0,0,0,53,104q22.66,0,45.33,0a10.84,10.84,0,0,0,2.35-.14,3.62,3.62,0,0,0,3.12-3.92A3.57,3.57,0,0,0,100.73,96.23Z"/><path class="cls-1" d="M99.13,81.29q-23.44-.06-46.9,0c-3,0-4.81,1.57-4.8,4s1.66,3.85,4.84,3.86H75.33c8,0,15.9,0,23.84,0,3,0,4.62-1.38,4.67-3.76S102.13,81.29,99.13,81.29Z"/><path class="cls-1" d="M51.68,74.37c3.49,0,7,0,10.46,0,2.67,0,5.35,0,8,0h2.68c2.62,0,4.13-1.34,4.27-3.58a3.87,3.87,0,0,0-4-4.24q-10.83-.15-21.68,0a3.91,3.91,0,0,0-4,4.21C47.56,73,49.09,74.34,51.68,74.37Z"/></svg>