<svg id="Capa_1" data-name="Capa 1" xmlns="http://www.w3.org/2000/svg" viewBox="0 0 200 200"><defs><style>.cls-1{fill:#fff;}</style></defs><path class="cls-1" d="M59.66,44.43c.12-2.7-.21-5.48,2.18-7.1A8.5,8.5,0,0,1,66.08,36c3.94-.13,5.13,1.59,6.18,8.32h55.65c.07-2.6-.3-5.38,2.14-7a9.51,9.51,0,0,1,4-1.33,4.7,4.7,0,0,1,5.06,2.52c.83,1.74,1.05,3.76,1.6,5.94H147c6.83,0,10.63,3.84,10.63,10.7v98.3c0,6.9-3.74,10.64-10.62,10.64H53c-6.9,0-10.64-3.74-10.64-10.62V55.15c0-6.95,3.79-10.7,10.81-10.72ZM46.25,75.1c-.06.78-.13,1.3-.13,1.82q0,34.74,0,69.47c0,4.21,2.26,6.44,6.44,6.44q35.63,0,71.26,0c3.61,0,5.19-1.63,5.21-5.29,0-3.21.19-6.42,0-9.61-.46-6.55,3.64-10.48,9.92-10,3.05.22,6.14,0,9.2,0,4.37,0,5.77-1.38,5.77-5.73V75.1H75.74A4.65,4.65,0,0,1,73.58,75a2.88,2.88,0,0,1-1.41-1.84c0-.51.77-1.33,1.38-1.61a6,6,0,0,1,2.37-.19h74.86a4.85,4.85,0,0,0,1.79,0c.52-.21,1.25-.8,1.26-1.23.07-5.47.15-10.95,0-16.41-.11-3.31-2.45-5.28-5.82-5.31-4.87,0-9.75,0-14.62,0a15.41,15.41,0,0,0-1.68.18c0,1.64,0,3.16,0,4.68s.45,2.29,2,2.54c1.26.21,2.2.95,1.81,2.34s-1.54,1.69-2.9,1.36A5.7,5.7,0,0,1,128,53.82c0-1.78,0-3.56,0-5.4H63.57c0,1.58,0,3,0,4.49s.33,2.57,2.06,2.83A1.75,1.75,0,0,1,67.22,58c-.35,1.38-1.42,1.64-2.68,1.4a5.84,5.84,0,0,1-4.78-5.84c-.07-1.71,0-3.42,0-5.3H52.47c-4.15,0-6.31,2.11-6.35,6.25,0,4.67,0,9.34,0,14V71.3H65c1.47,0,3.29-.16,3.26,2,0,1.93-1.72,1.85-3.16,1.84H46.25Zm107.64,59.43c-.91.86-1.41,1.29-1.87,1.76-5.43,5.42-10.92,10.77-16.24,16.3a12.29,12.29,0,0,1-9.59,4c-23.47-.11-46.95-.05-70.43-.06-3.16,0-6.39.46-9.32-1.52,0,3.12,2.13,5.23,5.41,5.36,2.6.1,5.2,0,7.8,0H147.1c4.61,0,6.75-2.12,6.79-6.7,0-2.46,0-4.93,0-7.4Zm-3.17-2.82c-4.65,0-9.35-.09-14,0-2.3.06-3.79,1.91-3.82,4.32-.05,3.46,0,6.93,0,10.39v3ZM68.86,44.34c-.65-1.75-.94-3.22-1.74-4.32a2.84,2.84,0,0,0-2.64.13,16.33,16.33,0,0,0-1.19,4.19Zm68.15,0c-.66-1.74-1-3.21-1.77-4.31a2.8,2.8,0,0,0-2.64.19c-.7,1.1-.83,2.57-1.25,4.12Z"/><path class="cls-1" d="M138.24,106.37c1.47,0,2.93,0,4.39,0a3.61,3.61,0,0,1,3.75,3.61c.09,3,.09,6,0,9a3.46,3.46,0,0,1-3.52,3.59q-4.59.19-9.18,0a3.44,3.44,0,0,1-3.54-3.58c-.11-3-.12-6,0-9,.09-2.3,1.57-3.58,3.91-3.63C135.45,106.34,136.85,106.37,138.24,106.37ZM134,110.23v8.51h8.44v-8.51Z"/><path class="cls-1" d="M61.57,98.86c-1.4,0-2.8,0-4.19,0a3.62,3.62,0,0,1-3.76-3.6c-.09-3-.09-6,0-9a3.46,3.46,0,0,1,3.51-3.61c3-.13,6.12-.14,9.17,0a3.52,3.52,0,0,1,3.58,3.77q.14,4.29,0,8.58A3.67,3.67,0,0,1,66,98.85C64.5,98.9,63,98.86,61.57,98.86Zm-4-12.38V95h8.39V86.48Z"/><path class="cls-1" d="M138.15,98.86c-1.33,0-2.66,0-4,0-2.46-.06-3.94-1.35-4-3.75-.11-2.92-.1-5.86,0-8.78a3.51,3.51,0,0,1,3.65-3.7c3-.12,6-.12,9,0,2.33.1,3.6,1.55,3.64,3.91,0,2.8,0,5.59,0,8.39-.05,2.48-1.52,3.87-4.06,3.93C141,98.89,139.55,98.86,138.15,98.86Zm-4.1-12.43V95h8.34V86.43Z"/><path class="cls-1" d="M61.74,122.06c-1.4,0-2.8,0-4.19,0-2.44-.07-3.89-1.42-3.94-3.82q-.11-4.29,0-8.58a3.55,3.55,0,0,1,3.56-3.81c3.05-.14,6.12-.14,9.17,0a3.55,3.55,0,0,1,3.55,3.81c.08,2.86.09,5.73,0,8.59-.08,2.44-1.5,3.75-3.95,3.81C64.53,122.09,63.14,122.06,61.74,122.06Zm-4.21-12.34v8.49H66v-8.49Z"/><path class="cls-1" d="M61.79,145.25c-1.46,0-2.93,0-4.39,0a3.59,3.59,0,0,1-3.79-3.74c-.07-2.93-.08-5.86,0-8.79a3.51,3.51,0,0,1,3.5-3.63c3-.11,6.12-.11,9.17,0a3.48,3.48,0,0,1,3.58,3.55c.12,3,.12,6,0,9-.08,2.32-1.53,3.58-3.89,3.65C64.58,145.28,63.19,145.25,61.79,145.25Zm-4.2-12.31v8.54h8.34v-8.54Z"/><path class="cls-1" d="M79.11,90.63c0-1.39,0-2.79,0-4.19.08-2.26,1.3-3.69,3.53-3.79,3-.14,6.12-.14,9.17,0a3.39,3.39,0,0,1,3.53,3.59c.12,3,.12,6,0,9-.1,2.32-1.56,3.6-3.91,3.64-2.79.05-5.59.05-8.38,0-2.49,0-3.88-1.49-3.94-4C79.08,93.43,79.11,92,79.11,90.63ZM91.48,95V86.5H83V95Z"/><path class="cls-1" d="M87.26,122.06c-1.47,0-2.93,0-4.39,0a3.57,3.57,0,0,1-3.73-3.6c-.08-3-.07-6,0-9a3.45,3.45,0,0,1,3.5-3.61c3-.14,6.12-.14,9.17,0a3.43,3.43,0,0,1,3.54,3.59c.12,3,.12,6,0,9-.1,2.35-1.53,3.58-3.9,3.64C90.05,122.09,88.65,122.06,87.26,122.06Zm4.23-3.83v-8.51H83v8.51Z"/><path class="cls-1" d="M120.89,90.74c0,1.4,0,2.79,0,4.19A3.66,3.66,0,0,1,117,98.84q-4.29.09-8.58,0a3.51,3.51,0,0,1-3.78-3.55c-.13-3-.13-6.12,0-9.17a3.37,3.37,0,0,1,3.61-3.5c3-.12,6-.12,9,0,2.33.1,3.56,1.53,3.62,3.91C120.92,87.94,120.89,89.34,120.89,90.74ZM117,95V86.52h-8.42V95Z"/><path class="cls-1" d="M120.88,114.09c0,1.46.06,2.93,0,4.39a3.54,3.54,0,0,1-3.57,3.55c-3,.08-6,.07-9,0a3.35,3.35,0,0,1-3.59-3.28c-.16-3.18-.14-6.38,0-9.56a3.24,3.24,0,0,1,3.33-3.33c3.12-.14,6.25-.16,9.37,0,2.21.1,3.41,1.57,3.48,3.84,0,1.46,0,2.93,0,4.39ZM117,118.24v-8.47h-8.39v8.47Z"/><path class="cls-1" d="M87.23,145.25c-1.47,0-2.93,0-4.39,0a3.55,3.55,0,0,1-3.7-3.62q-.12-4.49,0-9a3.47,3.47,0,0,1,3.53-3.58c3-.11,6-.1,9,0a3.49,3.49,0,0,1,3.7,3.63c.12,3,.12,6,0,9-.1,2.34-1.53,3.53-3.92,3.59C90,145.28,88.62,145.25,87.23,145.25ZM91.54,133H83v8.5h8.5Z"/><path class="cls-1" d="M117,141.6V133h-8.53a6.63,6.63,0,0,1-.17,2.36c-.36.72-1.15,1.66-1.78,1.68a2.53,2.53,0,0,1-1.81-1.6c-1-4.21.78-6.37,5.12-6.37,2.33,0,4.66-.05,7,0,2.66.07,4,1.46,4,4.14s0,5.33,0,8-1.42,4.05-4.08,4.08-5.6,0-8.4,0c-2.09,0-3.65-1.34-3.64-3.18a2.57,2.57,0,0,1,1.08-2c.54-.24,1.47.33,2.21.62s1.27.87,1.92.91C112.27,141.67,114.59,141.6,117,141.6Z"/></svg>