<svg id="Capa_1" data-name="Capa 1" xmlns="http://www.w3.org/2000/svg" viewBox="0 0 200 200"><defs><style>.cls-1{fill:#fff;}</style></defs><path class="cls-1" d="M72,103.49c-1.54-2.37-3.93-4.46-4-6.66s2.14-4.4,3.59-7c-2.68-2.61-5.77-5.6-8.82-8.63-3.83-3.79-7.59-7.67-11.48-11.4a5.16,5.16,0,0,0-3-1.23c-2.61-.17-5.24,0-7.86-.07-3-.07-4.32-1-5.29-3.87-2.9-8.6-5.74-17.22-8.66-25.81a5.21,5.21,0,0,1,1.45-6.06c1.74-1.63,3.39-3.37,5.07-5.06a4.76,4.76,0,0,1,5.27-1.29Q51.59,30.85,65,35.25a4.75,4.75,0,0,1,3.45,4.44,8.52,8.52,0,0,1,0,2.31c-1.08,5.9,1.32,10.08,5.73,14,5.66,5,10.73,10.59,15.71,15.59,2.51-1.39,4.76-3.64,6.9-3.55s4.31,2.48,6.8,4.08c3-3,6.29-6.34,9.5-9.75a3,3,0,0,0,.44-2.1c-1.5-16.32,7.84-29.64,23.71-33.49a28.55,28.55,0,0,1,18.94,2c3.41,1.55,4,4.74,1.48,7.48-3.11,3.32-6.3,6.55-9.47,9.82s-3.26,3.36-2.64,8.48c3,.32,5.79.48,8.22-2.35a132.94,132.94,0,0,1,9.74-9.54c3.13-3,6.28-2.3,8,1.7a30.31,30.31,0,0,1-31.09,42.16,4.17,4.17,0,0,0-3.81,1.42c-2.93,3-6,6-9,9,8.8,8.82,17.43,17.5,26.08,26.16,5.17,5.19,10.36,10.34,15.53,15.54,6.38,6.41,6.39,13.88,0,20.33-3.52,3.56-7.05,7.12-10.63,10.62-6.17,6-13.72,6-19.84,0-13.93-13.84-27.82-27.73-41.92-41.8-3.31,3.32-6.7,6.64-10,10.08a3.41,3.41,0,0,0-.38,2.33c1.32,14.78-6.68,27.44-20.47,32.3-20.93,7.39-42.82-10.56-39.74-32.58a30.15,30.15,0,0,1,33.38-26.25,3.93,3.93,0,0,0,3.61-1.34C66.22,109.16,69.26,106.22,72,103.49Zm24.58-25L78.43,96.58c3.16,4,4.37,4.87,8.56,6,8.29,2.25,13.64,7.5,15.76,15.83a13.28,13.28,0,0,0,3.84,6.63c4.78,4.58,9.4,9.34,14.09,14q12.18,12.18,24.36,24.35c2.06,2,4.3,2.48,6.18,1a40.49,40.49,0,0,0,3.51-3.45c-.69-.72-1.25-1.34-1.84-1.93l-36.13-36.13a22.37,22.37,0,0,1-2.21-2.36,4.29,4.29,0,0,1,6-6,18,18,0,0,1,2,1.88q18.15,18.15,36.27,36.32a12.94,12.94,0,0,1,1.51,2.18c5.13-3.73,6.69-6.47,1.79-11.25-12.8-12.48-25.31-25.26-38-37.83a10.69,10.69,0,0,0-4.66-2.64c-8.25-2.12-14.23-6.87-16.52-15.12A17.42,17.42,0,0,0,96.58,78.45ZM54,165.23c16.1,0,26.32-12.47,23.44-26a6.3,6.3,0,0,1,1.92-6.45c4.4-4.2,8.58-8.63,13-12.83,1.31-1.26,1.27-2.18.32-3.53a13.05,13.05,0,0,0-7.3-5.32,40.57,40.57,0,0,1-5.07-1.49,2.12,2.12,0,0,0-2.79.58c-3.43,3.54-7,6.92-10.4,10.5a6.2,6.2,0,0,1-6.26,1.86c-8.73-1.7-16.08.88-21.53,7.84S33.09,145.23,37,153.19,47.5,164.93,54,165.23ZM146.34,35.31c-.23-.28-.27-.38-.32-.39-14-2-26.74,11.6-23.62,25.4a6.8,6.8,0,0,1-2.14,7.23c-3.5,3.24-6.81,6.69-10.12,10.13a2.7,2.7,0,0,0-.67,2.09c.41,1.94,1.07,3.84,1.64,5.75a13.28,13.28,0,0,0,5.41,7.25c1.29.89,2.18.86,3.34-.35,4.28-4.43,8.75-8.68,13-13.12a6.23,6.23,0,0,1,6.26-1.85c8.54,1.68,15.7-.88,21.27-7.48,3.92-4.64,5.41-10.13,4.57-16.63-3,2.9-5.63,5.64-8.51,8a9.12,9.12,0,0,1-4.7,1.91c-3.21.29-6.47.11-9.7.08-3.71,0-5.38-1.68-5.44-5.35,0-2.93.11-5.86,0-8.78a7.88,7.88,0,0,1,2.68-6.56C141.73,40.31,144,37.75,146.34,35.31ZM84,77.85C78,71.89,72.3,65.61,66,60c-4.82-4.23-7.38-8.84-6.26-15.24.31-1.74-.59-2.39-2.12-2.88-6.07-1.95-12.1-4.07-18.18-6a4.24,4.24,0,0,0-2.81.49c-1.22.61-1.2,1.74-.77,3,1.55,4.51,3,9,4.55,13.56.74,2.18,1,5.19,2.52,6.26s4.56.42,6.92.51a5.3,5.3,0,0,0,.69,0,6.17,6.17,0,0,1,5.31,2.21C61.37,67.57,67,73.14,72.6,78.79c1.78,1.79,3.44,3.7,5.11,5.51Z"/><path class="cls-1" d="M43.36,143.64a13.19,13.19,0,0,1,12.87-13.06,13.38,13.38,0,0,1,13.16,13.09,13.2,13.2,0,0,1-13.19,13A13,13,0,0,1,43.36,143.64Zm13.28-4.29A4.49,4.49,0,0,0,52,143.46,4.64,4.64,0,0,0,56,148a4.52,4.52,0,0,0,4.62-3.92A4.38,4.38,0,0,0,56.64,139.35Z"/></svg>